<svg xmlns="http://www.w3.org/2000/svg" style="display: none;"><symbol id="home" viewBox="0 0 512 512"><title>home</title><g> <g> <path d="M506.555,208.064L263.859,30.367c-4.68-3.426-11.038-3.426-15.716,0L5.445,208.064 c-5.928,4.341-7.216,12.665-2.875,18.593s12.666,7.214,18.593,2.875L256,57.588l234.837,171.943c2.368,1.735,5.12,2.57,7.848,2.57 c4.096,0,8.138-1.885,10.744-5.445C513.771,220.729,512.483,212.405,506.555,208.064z"/> </g> </g><g> <g> <path d="M442.246,232.543c-7.346,0-13.303,5.956-13.303,13.303v211.749H322.521V342.009c0-36.68-29.842-66.52-66.52-66.52 s-66.52,29.842-66.52,66.52v115.587H83.058V245.847c0-7.347-5.957-13.303-13.303-13.303s-13.303,5.956-13.303,13.303v225.053 c0,7.347,5.957,13.303,13.303,13.303h133.029c6.996,0,12.721-5.405,13.251-12.267c0.032-0.311,0.052-0.651,0.052-1.036v-128.89 c0-22.009,17.905-39.914,39.914-39.914s39.914,17.906,39.914,39.914v128.89c0,0.383,0.02,0.717,0.052,1.024 c0.524,6.867,6.251,12.279,13.251,12.279h133.029c7.347,0,13.303-5.956,13.303-13.303V245.847 C455.549,238.499,449.593,232.543,442.246,232.543z"/> </g> </g></symbol><symbol id="pie-chart" viewBox="0 0 476.3 476.3"><title>pie-chart</title><path d="M411.75,250.2h-185.6V64.6c0-7.5-6-13.5-13.5-13.5c-117.2,0-212.6,95.4-212.6,212.6s95.4,212.6,212.6,212.6 s212.6-95.4,212.6-212.6C425.25,256.3,419.15,250.2,411.75,250.2z M212.65,449.3c-102.3,0-185.6-83.3-185.6-185.6 c0-97.8,76-178.2,172.1-185.1v185.1c0,7.5,6,13.5,13.5,13.5h185.1C390.85,373.3,310.45,449.3,212.65,449.3z"/><path d="M476.25,211.9c-0.2-51.6-19.1-101.3-53.2-140C382.65,26.2,324.65,0,263.65,0c-7.5,0-13.5,6-13.5,13.5v199.1 c0,7.5,6,13.5,13.5,13.5h199.1l0,0c7.5,0,13.5-6,13.5-13.5C476.25,212.4,476.25,212.2,476.25,211.9z M277.15,199.2V27.6 c48.2,3.5,93.4,25.8,125.6,62.3c27,30.5,43,68.9,46,109.3H277.15z"/></symbol><symbol id="shopping-cart" viewBox="0 0 511.999 511.999"><title>shopping-cart</title><g> <g> <path d="M214.685,402.828c-24.829,0-45.029,20.2-45.029,45.029c0,24.829,20.2,45.029,45.029,45.029s45.029-20.2,45.029-45.029 C259.713,423.028,239.513,402.828,214.685,402.828z M214.685,467.742c-10.966,0-19.887-8.922-19.887-19.887 c0-10.966,8.922-19.887,19.887-19.887s19.887,8.922,19.887,19.887C234.572,458.822,225.65,467.742,214.685,467.742z"/> </g> </g><g> <g> <path d="M372.63,402.828c-24.829,0-45.029,20.2-45.029,45.029c0,24.829,20.2,45.029,45.029,45.029s45.029-20.2,45.029-45.029 C417.658,423.028,397.458,402.828,372.63,402.828z M372.63,467.742c-10.966,0-19.887-8.922-19.887-19.887 c0-10.966,8.922-19.887,19.887-19.887c10.966,0,19.887,8.922,19.887,19.887C392.517,458.822,383.595,467.742,372.63,467.742z"/> </g> </g><g> <g> <path d="M383.716,165.755H203.567c-6.943,0-12.571,5.628-12.571,12.571c0,6.943,5.629,12.571,12.571,12.571h180.149 c6.943,0,12.571-5.628,12.571-12.571C396.287,171.382,390.659,165.755,383.716,165.755z"/> </g> </g><g> <g> <path d="M373.911,231.035H213.373c-6.943,0-12.571,5.628-12.571,12.571s5.628,12.571,12.571,12.571h160.537 c6.943,0,12.571-5.628,12.571-12.571C386.481,236.664,380.853,231.035,373.911,231.035z"/> </g> </g><g> <g> <path d="M506.341,109.744c-4.794-5.884-11.898-9.258-19.489-9.258H95.278L87.37,62.097c-1.651-8.008-7.113-14.732-14.614-17.989 l-55.177-23.95c-6.37-2.767-13.773,0.156-16.536,6.524c-2.766,6.37,0.157,13.774,6.524,16.537L62.745,67.17l60.826,295.261 c2.396,11.628,12.752,20.068,24.625,20.068h301.166c6.943,0,12.571-5.628,12.571-12.571c0-6.943-5.628-12.571-12.571-12.571 H148.197l-7.399-35.916H451.69c11.872,0,22.229-8.44,24.624-20.068l35.163-170.675 C513.008,123.266,511.136,115.627,506.341,109.744z M451.69,296.301H135.619l-35.161-170.674l386.393,0.001L451.69,296.301z"/> </g> </g></symbol><symbol id="bill" viewBox="0 0 512 512"><title>bill</title><g> <g> <path d="M474.994,246.001h-74.012v-236c0-4.044-2.437-7.691-6.173-9.239c-3.738-1.549-8.039-0.691-10.898,2.167l-28.329,28.328 L327.255,2.93c-3.905-3.905-10.237-3.905-14.143,0l-28.328,28.328L256.459,2.93c-3.905-3.905-10.237-3.905-14.143,0 l-28.328,28.328L185.659,2.93c-3.905-3.905-10.237-3.905-14.142,0l-28.328,28.328L114.863,2.93 c-3.905-3.905-10.237-3.905-14.143,0L72.392,31.258L44.065,2.93c-3.881-3.881-10.158-3.901-14.073-0.055 c-2.056,2.021-3.053,4.714-2.984,7.389v449.738c0,28.672,23.326,51.998,51.998,51.998h353.976c0.002,0,0.003,0,0.005,0 c0.003,0,0.006,0,0.009,0c28.672,0,51.998-23.326,51.998-51.998V256C484.994,250.477,480.517,246.001,474.994,246.001z M79.006,492c-17.645,0-31.999-14.355-31.999-31.999V34.156L65.321,52.47c3.905,3.905,10.237,3.905,14.143,0l28.328-28.328 L136.12,52.47c3.905,3.905,10.237,3.905,14.143,0l28.328-28.328L206.92,52.47c3.905,3.905,10.237,3.905,14.142,0l28.328-28.328 l28.328,28.328c3.905,3.905,10.237,3.905,14.143,0l28.328-28.328l28.328,28.328c3.906,3.905,10.238,3.905,14.142,0l18.329-18.328 V256c0,0.091,0.011,0.18,0.014,0.271v203.73c0,12.062,4.14,23.168,11.057,31.999H79.006z M464.994,460.001 c0,17.644-14.355,31.999-31.999,31.999s-31.999-14.355-31.999-31.999V266h63.998V460.001z"/> </g> </g><g> <g> <path d="M213.995,158.855c-9.925,0-17.999-6.914-17.999-15.411c0-8.498,8.075-15.412,17.999-15.412 c9.925,0,17.999,6.914,17.999,15.412c0,5.523,4.477,10,10,10c5.523,0,10-4.477,10-10c0-16.301-11.884-30.055-27.999-34.157v-6.774 c0-5.523-4.477-10-10-10s-10,4.477-10,10v6.774c-16.116,4.102-27.999,17.857-27.999,34.157c0,19.525,17.047,35.41,37.999,35.41 c9.925,0,17.999,6.914,17.999,15.412s-8.074,15.411-17.999,15.411c-9.925,0-17.999-6.914-17.999-15.411c0-5.523-4.477-10-10-10 s-10,4.477-10,10c0,16.301,11.884,30.055,27.999,34.157v8.16c0,5.523,4.477,10,10,10s10-4.477,10-10v-8.16 c16.116-4.102,27.999-17.856,27.999-34.157C251.994,174.741,234.947,158.855,213.995,158.855z"/> </g> </g><g> <g> <path d="M314.461,158.856h-19.49c-5.523,0-10,4.477-10,10s4.477,10,10,10h19.49c5.523,0,10-4.477,10-10 S319.984,158.856,314.461,158.856z"/> </g> </g><g> <g> <path d="M133.02,158.856h-19.49c-5.523,0-10,4.477-10,10s4.477,10,10,10h19.49c5.523,0,10-4.477,10-10 S138.543,158.856,133.02,158.856z"/> </g> </g><g> <g> <path d="M319.52,270.007H161.097c-5.523,0-10,4.477-10,10c0,5.523,4.477,10,10,10H319.52c5.523,0,10-4.477,10-10 C329.519,274.484,325.043,270.007,319.52,270.007z"/> </g> </g><g> <g> <path d="M115.538,272.937c-1.86-1.86-4.44-2.93-7.07-2.93c-2.63,0-5.21,1.07-7.07,2.93c-1.86,1.86-2.93,4.44-2.93,7.07 c0,2.63,1.07,5.21,2.93,7.07c1.86,1.86,4.44,2.93,7.07,2.93c2.63,0,5.21-1.07,7.07-2.93c1.86-1.86,2.93-4.44,2.93-7.07 C118.468,277.377,117.398,274.797,115.538,272.937z"/> </g> </g><g> <g> <path d="M319.52,336.005H161.097c-5.523,0-10,4.477-10,10c0,5.523,4.477,10,10,10H319.52c5.523,0,10-4.477,10-10 C329.519,340.482,325.043,336.005,319.52,336.005z"/> </g> </g><g> <g> <path d="M115.538,338.935c-1.86-1.86-4.44-2.93-7.07-2.93c-2.63,0-5.21,1.07-7.07,2.93c-1.86,1.86-2.93,4.44-2.93,7.07 c0,2.63,1.07,5.21,2.93,7.07c1.86,1.86,4.44,2.93,7.07,2.93c2.63,0,5.21-1.07,7.07-2.93c1.86-1.86,2.93-4.44,2.93-7.07 C118.468,343.375,117.398,340.795,115.538,338.935z"/> </g> </g><g> <g> <path d="M319.52,402.003H161.097c-5.523,0-10,4.477-10,10s4.477,10,10,10H319.52c5.523,0,10-4.477,10-10 S325.043,402.003,319.52,402.003z"/> </g> </g><g> <g> <path d="M115.538,404.933c-1.86-1.86-4.44-2.93-7.07-2.93c-2.63,0-5.21,1.07-7.07,2.93c-1.86,1.86-2.93,4.44-2.93,7.07 s1.07,5.21,2.93,7.07c1.86,1.86,4.44,2.93,7.07,2.93c2.63,0,5.21-1.07,7.07-2.93c1.86-1.86,2.93-4.44,2.93-7.07 S117.398,406.793,115.538,404.933z"/> </g> </g></symbol><symbol id="avatar" viewBox="0 0 482.9 482.9"><title>avatar</title><path d="M239.7,260.2c0.5,0,1,0,1.6,0c0.2,0,0.4,0,0.6,0c0.3,0,0.7,0,1,0c29.3-0.5,53-10.8,70.5-30.5 c38.5-43.4,32.1-117.8,31.4-124.9c-2.5-53.3-27.7-78.8-48.5-90.7C280.8,5.2,262.7,0.4,242.5,0h-0.7c-0.1,0-0.3,0-0.4,0h-0.6 c-11.1,0-32.9,1.8-53.8,13.7c-21,11.9-46.6,37.4-49.1,91.1c-0.7,7.1-7.1,81.5,31.4,124.9C186.7,249.4,210.4,259.7,239.7,260.2z M164.6,107.3c0-0.3,0.1-0.6,0.1-0.8c3.3-71.7,54.2-79.4,76-79.4h0.4c0.2,0,0.5,0,0.8,0c27,0.6,72.9,11.6,76,79.4 c0,0.3,0,0.6,0.1,0.8c0.1,0.7,7.1,68.7-24.7,104.5c-12.6,14.2-29.4,21.2-51.5,21.4c-0.2,0-0.3,0-0.5,0l0,0c-0.2,0-0.3,0-0.5,0 c-22-0.2-38.9-7.2-51.4-21.4C157.7,176.2,164.5,107.9,164.6,107.3z"/><path d="M446.8,383.6c0-0.1,0-0.2,0-0.3c0-0.8-0.1-1.6-0.1-2.5c-0.6-19.8-1.9-66.1-45.3-80.9c-0.3-0.1-0.7-0.2-1-0.3 c-45.1-11.5-82.6-37.5-83-37.8c-6.1-4.3-14.5-2.8-18.8,3.3c-4.3,6.1-2.8,14.5,3.3,18.8c1.7,1.2,41.5,28.9,91.3,41.7 c23.3,8.3,25.9,33.2,26.6,56c0,0.9,0,1.7,0.1,2.5c0.1,9-0.5,22.9-2.1,30.9c-16.2,9.2-79.7,41-176.3,41 c-96.2,0-160.1-31.9-176.4-41.1c-1.6-8-2.3-21.9-2.1-30.9c0-0.8,0.1-1.6,0.1-2.5c0.7-22.8,3.3-47.7,26.6-56 c49.8-12.8,89.6-40.6,91.3-41.7c6.1-4.3,7.6-12.7,3.3-18.8c-4.3-6.1-12.7-7.6-18.8-3.3c-0.4,0.3-37.7,26.3-83,37.8 c-0.4,0.1-0.7,0.2-1,0.3c-43.4,14.9-44.7,61.2-45.3,80.9c0,0.9,0,1.7-0.1,2.5c0,0.1,0,0.2,0,0.3c-0.1,5.2-0.2,31.9,5.1,45.3 c1,2.6,2.8,4.8,5.2,6.3c3,2,74.9,47.8,195.2,47.8s192.2-45.9,195.2-47.8c2.3-1.5,4.2-3.7,5.2-6.3 C447,415.5,446.9,388.8,446.8,383.6z"/></symbol><symbol id="layer" viewBox="0 0 512 512"><title>layer</title><path d="M498.112,352.689l-77.223-37.278l77.223-37.279c18.518-8.94,18.515-35.326,0.001-44.261l-77.222-37.28l77.222-37.279 c18.519-8.94,18.509-35.327,0-44.26L383.528,59.734c-3.718-1.796-8.186-0.235-9.981,3.481c-1.794,3.717-0.235,8.186,3.482,9.981 l114.586,55.317c7.267,3.509,7.275,13.824,0,17.337c-8.943,4.317-222.13,107.232-231.43,111.723c-2.66,1.282-5.71,1.282-8.369,0 c-7.277-3.513-226.515-109.349-231.43-111.723c-7.268-3.509-7.276-13.824,0-17.337L251.815,16.791 c2.659-1.285,5.71-1.284,8.37-0.001l85.395,41.225c3.718,1.796,8.186,0.234,9.981-3.481c1.795-3.717,0.236-8.186-3.481-9.981 L266.683,3.327c-6.789-3.276-14.576-3.277-21.366,0.001L13.887,115.051c-18.52,8.939-18.51,35.326,0,44.26l77.222,37.279 l-77.222,37.28c-18.522,8.939-18.509,35.326,0,44.26L91.11,315.41l-77.223,37.278c-18.521,8.942-18.507,35.327,0,44.261 l231.431,111.724c6.785,3.274,14.576,3.277,21.366-0.001l93.769-45.267c3.717-1.795,5.276-6.263,3.481-9.981 c-1.794-3.717-6.263-5.279-9.981-3.481l-93.768,45.266c-2.66,1.285-5.712,1.284-8.37,0.001L20.384,383.488 c-7.268-3.509-7.276-13.824,0-17.337l87.917-42.441l137.015,66.143c6.79,3.278,14.578,3.279,21.367,0l137.015-66.143l87.916,42.44 c7.268,3.508,7.277,13.824,0,17.337l-106.211,51.272c-3.717,1.795-5.276,6.263-3.482,9.981c1.795,3.717,6.263,5.279,9.981,3.481 l106.211-51.272C516.633,388.01,516.62,361.624,498.112,352.689z M260.184,376.391c-2.66,1.283-5.71,1.283-8.369,0L20.385,264.669 c-7.268-3.509-7.277-13.824,0-17.337l87.916-42.443l137.016,66.144c6.79,3.279,14.578,3.279,21.367,0L403.7,204.889l87.916,42.443 c7.267,3.509,7.276,13.824-0.001,17.337L260.184,376.391z"/></symbol><symbol id="question" viewBox="0 0 295.82 295.82"><title>question</title><path d="m154.871,69.605c-10.441-3.48-22.621,0-31.322,6.96-8.701,6.96-13.921,17.401-13.921,29.582 0,5.22 3.48,8.701 8.701,8.701 5.22,0 8.701-3.48 8.701-8.701 0-5.22 1.74-12.181 6.96-15.661 5.22-3.48 10.441-5.22 17.401-3.48 8.701,1.74 13.921,8.701 15.661,15.661 1.74,8.701 0,15.661-6.96,20.882-13.921,10.441-20.882,26.102-20.882,41.763 0,5.22 3.48,8.701 8.701,8.701 5.22,0 8.701-3.48 6.96-8.701 0-10.441 6.96-20.882 15.661-27.842 12.181-10.441 17.401-24.362 13.921-38.283-3.481-15.661-15.661-26.102-29.582-29.582z"/><path d="m140.95,210.555c-1.74,1.74-1.74,5.22-1.74,6.96 0,1.74 0,3.48 1.74,5.22 1.74,1.74 5.22,3.48 6.96,3.48 1.74,0 5.22-1.74 5.22-3.48 1.74,0 3.48-3.48 3.48-5.22 0-3.48-1.74-5.22-3.48-6.96-3.48-3.481-8.7-3.481-12.18,0z"/><path d="M147.91,0C66.124,0,0,66.124,0,147.91s66.124,147.91,147.91,147.91s147.91-66.124,147.91-147.91S229.696,0,147.91,0z M147.91,278.419c-71.345,0-130.509-59.164-130.509-130.509S76.565,17.401,147.91,17.401S278.419,76.565,278.419,147.91 S219.255,278.419,147.91,278.419z"/></symbol><symbol id="settings" viewBox="0 0 54 54"><title>settings</title><path d="M27,13c-7.72,0-14,6.28-14,14s6.28,14,14,14s14-6.28,14-14S34.72,13,27,13z M27,39c-6.617,0-12-5.383-12-12s5.383-12,12-12 s12,5.383,12,12S33.617,39,27,39z"/><path d="M51.22,21h-2.018c-0.515-1.912-1.272-3.742-2.26-5.457l1.426-1.426c0.525-0.525,0.814-1.224,0.814-1.966 c0-0.743-0.289-1.441-0.814-1.967l-4.553-4.553c-1.05-1.049-2.881-1.051-3.933,0l-1.426,1.426C36.74,6.07,34.911,5.313,33,4.798 V2.78C33,1.247,31.753,0,30.22,0H23.78C22.247,0,21,1.247,21,2.78v2.018c-1.911,0.515-3.74,1.272-5.457,2.26l-1.426-1.426 c-1.051-1.052-2.883-1.05-3.933,0l-4.553,4.553c-0.525,0.525-0.814,1.224-0.814,1.967c0,0.742,0.289,1.44,0.814,1.966l1.426,1.426 C6.07,17.258,5.312,19.088,4.798,21H2.78C1.247,21,0,22.247,0,23.78v6.439C0,31.753,1.247,33,2.78,33h2.018 c0.515,1.911,1.272,3.74,2.26,5.457l-1.426,1.426c-0.525,0.525-0.814,1.224-0.814,1.966c0,0.743,0.289,1.441,0.814,1.967 l4.553,4.553c1.05,1.051,2.882,1.052,3.933,0l1.426-1.426c1.717,0.987,3.546,1.745,5.457,2.26v2.018c0,1.533,1.247,2.78,2.78,2.78 h6.439c1.533,0,2.78-1.247,2.78-2.78v-2.018c1.911-0.515,3.74-1.272,5.457-2.26l1.426,1.426c1.052,1.052,2.882,1.05,3.933,0 l4.553-4.553c0.525-0.525,0.814-1.224,0.814-1.967c0-0.742-0.289-1.44-0.814-1.966l-1.426-1.426 c0.987-1.717,1.745-3.546,2.26-5.457h2.018c1.533,0,2.78-1.247,2.78-2.78V23.78C54,22.247,52.753,21,51.22,21z M52,30.22 C52,30.65,51.65,31,51.22,31h-3.592l-0.18,0.773c-0.521,2.237-1.399,4.36-2.613,6.311l-0.42,0.674l2.539,2.539 c0.305,0.305,0.305,0.8,0,1.104l-4.553,4.553c-0.304,0.304-0.799,0.306-1.104,0l-2.539-2.539l-0.674,0.42 c-1.95,1.214-4.073,2.093-6.311,2.613L31,47.628v3.592C31,51.65,30.65,52,30.22,52H23.78C23.35,52,23,51.65,23,51.22v-3.592 l-0.773-0.18c-2.237-0.521-4.36-1.399-6.311-2.613l-0.674-0.42l-2.539,2.539c-0.306,0.306-0.801,0.304-1.104,0l-4.553-4.553 c-0.305-0.305-0.305-0.8,0-1.104l2.539-2.539l-0.42-0.674c-1.214-1.95-2.093-4.073-2.613-6.311L6.372,31H2.78 C2.35,31,2,30.65,2,30.22V23.78C2,23.35,2.35,23,2.78,23h3.592l0.18-0.773c0.521-2.238,1.399-4.361,2.613-6.311l0.42-0.674 l-2.539-2.539c-0.305-0.305-0.305-0.8,0-1.104l4.553-4.553c0.304-0.304,0.799-0.306,1.104,0l2.539,2.539l0.674-0.42 c1.95-1.214,4.073-2.093,6.311-2.613L23,6.372V2.78C23,2.35,23.35,2,23.78,2h6.439C30.65,2,31,2.35,31,2.78v3.592l0.773,0.18 c2.237,0.521,4.36,1.399,6.311,2.613l0.674,0.42l2.539-2.539c0.306-0.306,0.801-0.304,1.104,0l4.553,4.553 c0.305,0.305,0.305,0.8,0,1.104l-2.539,2.539l0.42,0.674c1.214,1.949,2.093,4.072,2.613,6.311L47.628,23h3.592 C51.65,23,52,23.35,52,23.78V30.22z"/><path d="M27,17c-5.514,0-10,4.486-10,10s4.486,10,10,10s10-4.486,10-10S32.514,17,27,17z M27,35c-4.411,0-8-3.589-8-8s3.589-8,8-8 s8,3.589,8,8S31.411,35,27,35z"/></symbol></svg>