<svg xmlns="http://www.w3.org/2000/svg" style="display: none;"><symbol id="shopping-bag" viewBox="0 0 512 512"><title>shopping-bag</title><g> <g> <path d="M458.737,422.218l-22.865-288.116c-1.425-18.562-17.123-33.103-35.739-33.103H354.97v-2.03 C354.97,44.397,310.573,0,256.001,0s-98.969,44.397-98.969,98.969v2.03H111.87c-18.617,0-34.316,14.54-35.736,33.064 L53.262,422.257c-1.77,23.075,6.235,46.048,21.961,63.026C90.949,502.261,113.242,512,136.385,512h239.231 c23.142,0,45.436-9.738,61.163-26.717C452.505,468.304,460.509,445.332,458.737,422.218z M187.022,98.969 c0-38.035,30.945-68.979,68.979-68.979s68.979,30.945,68.979,68.979v2.03H187.022V98.969z M414.776,464.905 c-10.218,11.03-24.124,17.105-39.16,17.105h-239.23c-15.036,0-28.942-6.075-39.16-17.105 c-10.217-11.031-15.211-25.363-14.063-40.315l22.87-288.195c0.232-3.032,2.796-5.406,5.837-5.406h45.162v36.935 c0,8.281,6.714,14.995,14.995,14.995c8.281,0,14.995-6.714,14.995-14.995v-36.935H324.98v36.935 c0,8.281,6.714,14.995,14.995,14.995s14.995-6.714,14.995-14.995v-36.935h45.163c3.04,0,5.604,2.375,5.84,5.446l22.865,288.115 C429.988,439.542,424.993,453.873,414.776,464.905z"/> </g> </g><g> <g> <path d="M323.556,254.285c-5.854-5.856-15.349-5.856-21.204,0l-66.956,66.956l-25.746-25.746c-5.855-5.856-15.35-5.856-21.206,0 c-5.856,5.856-5.856,15.35,0,21.206l36.349,36.349c2.928,2.928,6.766,4.393,10.602,4.393s7.675-1.464,10.602-4.393l77.558-77.558 C329.412,269.635,329.412,260.141,323.556,254.285z"/> </g> </g></symbol><symbol id="id-card" viewBox="0 0 512 512"><title>id-card</title><g> <g> <path d="M479.388,89.13H32.612C14.63,89.13,0,103.76,0,121.742v268.516c0,17.982,14.63,32.612,32.612,32.612h446.776 c17.982,0,32.612-14.63,32.612-32.612V121.742C512,103.76,497.37,89.13,479.388,89.13z M490.259,390.257 c0,5.994-4.877,10.871-10.871,10.871H32.612c-5.994,0-10.871-4.877-10.871-10.871V121.741c0-5.994,4.877-10.871,10.871-10.871 h446.776c5.994,0,10.871,4.877,10.871,10.871V390.257z"/> </g> </g><g> <g> <path d="M422.107,184.506H305.442c-6.004,0-10.871,4.868-10.871,10.871c0,6.004,4.867,10.871,10.871,10.871h116.665 c6.004,0,10.871-4.867,10.871-10.871C432.978,189.374,428.111,184.506,422.107,184.506z"/> </g> </g><g> <g> <path d="M422.107,245.129H305.442c-6.004,0-10.871,4.867-10.871,10.871c0,6.003,4.867,10.871,10.871,10.871h116.665 c6.004,0,10.871-4.868,10.871-10.871C432.978,249.996,428.111,245.129,422.107,245.129z"/> </g> </g><g> <g> <path d="M422.107,305.752H305.442c-6.004,0-10.871,4.868-10.871,10.871c0,6.003,4.867,10.871,10.871,10.871h116.665 c6.004,0,10.871-4.868,10.871-10.871C432.978,310.62,428.111,305.752,422.107,305.752z"/> </g> </g><g> <g> <path d="M200.747,290.243c-0.22-0.015-20.116,0.814-25.49-20.71c7.261-5.715,13.354-13.656,17.708-23.14 c0.322,0.032,0.644,0.072,0.964,0.072c2.964-0.001,5.834-1.351,7.72-3.774c9.129-11.725,13.876-26.949,13.368-42.868 c-1.056-33.004-24.017-59.022-52.312-59.328c-0.774-0.031-1.463-0.011-2.02,0.009c-0.013,0-0.026,0.001-0.04,0.001 c-6.865-2.975-14.097-4.369-21.55-4.124c-15.932,0.509-30.55,8.401-41.158,22.223c-10.165,13.243-15.446,30.475-14.869,48.527 c0.098,3.054,0.34,5.87,0.728,8.538c1.053,7.686,3.173,15.054,6.301,21.897c1.503,3.289,4.699,5.482,8.311,5.698 c0.983,0.063,1.948-0.038,2.876-0.261c4.427,10.973,11.116,20.104,19.206,26.479c-5.267,21.488-25.28,20.749-25.499,20.763 c-21.389,0.7-38.576,18.305-38.576,39.86v39.614c0,5.404,4.38,9.784,9.784,9.784h163.339c5.404,0,9.784-4.38,9.784-9.784v-39.614 C239.323,308.548,222.135,290.943,200.747,290.243z M103.303,213.828c-0.045-0.299-0.088-0.6-0.13-0.901 c-0.292-2.012-0.471-4.115-0.545-6.426c-0.434-13.542,3.413-26.321,10.833-35.985c6.972-9.085,16.301-14.262,26.262-14.581 c0.329-0.011,8.148-0.63,14.725,3.257c1.377,0.814,3.064,1.057,4.655,1.018c0.201-0.005,3.133-0.153,3.281-0.152 c17.53,0.115,32.37,18.233,33.078,40.388c0.082,2.538-0.02,5.046-0.296,7.499c-6.475-11.114-16.093-19.72-27.539-24.533 c-2.46-1.033-5.236-1.018-7.684,0.043c-2.449,1.062-4.357,3.079-5.283,5.582c-0.755,2.042-1.673,4.032-2.726,5.917 c-2.569,4.594-7.825,7.303-13.716,7.118c-1.172-0.04-2.356-0.042-3.521-0.005c-5.733,0.184-11.324,1.277-16.657,3.264 C112.713,207.343,107.762,210.199,103.303,213.828z M116.938,228.029c2.479-1.832,5.203-3.187,7.976-4.375 c5.056-2.168,11.888-2.05,12.627-2.024c12.603,0.428,24.108-5.469,30.51-15.515c4.992,3.825,9.115,8.977,11.991,15.082 c-3.03,21.957-16.695,38.661-32.201,38.661C134.007,259.858,121.591,246.773,116.938,228.029z M138.437,278.323 c3.062,0.722,6.205,1.102,9.404,1.102c3.229,0,6.391-0.383,9.463-1.099c3.153,10.068,9.776,18.612,18.454,24.244 c-4.174,11.486-15.217,19.539-27.888,19.539s-23.714-8.053-27.889-19.54C128.661,296.936,135.284,288.392,138.437,278.323z M75.984,359.934v-29.83c0-11.209,9.119-20.327,20.328-20.327c0.224,0,3.793-0.205,5.322-0.411 c6.966,19.002,25.257,32.311,46.235,32.311c20.978,0,39.269-13.309,46.235-32.311c1.531,0.206,5.097,0.411,5.321,0.411 c11.21,0,20.328,9.119,20.328,20.327v29.83H75.984z"/> </g> </g></symbol><symbol id="address" viewBox="0 -1 512 512"><title>address</title><path d="m204.5 458.605469v51.855469l-12.539062-10.128907c-1.9375-1.566406-48.035157-38.992187-94.78125-92.660156-64.484376-74.035156-97.179688-140.492187-97.179688-197.519531v-5.652344c0-112.761719 91.738281-204.5 204.5-204.5s204.5 91.738281 204.5 204.5v5.652344c0 4.789062-.253906 9.652344-.714844 14.574218l-39.992187-36.484374c-8.191407-83.15625-78.519531-148.339844-163.792969-148.339844-90.757812 0-164.597656 73.839844-164.597656 164.597656v5.652344c0 96.367187 124.164062 213.027344 164.597656 248.453125zm122.699219-28.660157h59.851562v-59.851562h-59.851562zm-122.699219-310.238281c46.753906 0 84.792969 38.039063 84.792969 84.792969s-38.039063 84.792969-84.792969 84.792969-84.792969-38.039063-84.792969-84.792969 38.039063-84.792969 84.792969-84.792969zm0 39.902344c-24.753906 0-44.890625 20.136719-44.890625 44.890625 0 24.75 20.136719 44.890625 44.890625 44.890625 24.75 0 44.890625-20.140625 44.890625-44.890625 0-24.753906-20.140625-44.890625-44.890625-44.890625zm280.609375 243.222656-11.21875-10.234375v64.058594c0 29.828125-24.269531 54.09375-54.097656 54.09375h-126.332031c-29.828126 0-54.097657-24.265625-54.097657-54.09375v-64.058594l-11.21875 10.234375-26.890625-29.476562 155.371094-141.746094 155.375 141.746094zm-51.121094-46.636719-77.363281-70.574218-77.359375 70.574218v100.457032c0 7.828125 6.367187 14.195312 14.195313 14.195312h126.332031c7.828125 0 14.195312-6.367187 14.195312-14.195312zm0 0"/></symbol><symbol id="credit-card" viewBox="0 0 60 60"><title>credit-card</title><path d="M55.783,8H4.217C1.892,8,0,9.892,0,12.217v35.566C0,50.108,1.892,52,4.217,52h51.566C58.108,52,60,50.108,60,47.783V12.217 C60,9.892,58.108,8,55.783,8z M58,47.783C58,49.005,57.006,50,55.783,50H4.217C2.994,50,2,49.005,2,47.783V12.217 C2,10.995,2.994,10,4.217,10h51.566C57.006,10,58,10.995,58,12.217V47.783z"/><path d="M16,37H7c-0.553,0-1,0.448-1,1s0.447,1,1,1h9c0.553,0,1-0.448,1-1S16.553,37,16,37z"/><path d="M29,37h-9c-0.553,0-1,0.448-1,1s0.447,1,1,1h9c0.553,0,1-0.448,1-1S29.553,37,29,37z"/><path d="M8,42H7c-0.553,0-1,0.448-1,1s0.447,1,1,1h1c0.553,0,1-0.448,1-1S8.553,42,8,42z"/><path d="M14,42h-2c-0.553,0-1,0.448-1,1s0.447,1,1,1h2c0.553,0,1-0.448,1-1S14.553,42,14,42z"/><path d="M19,42h-1c-0.553,0-1,0.448-1,1s0.447,1,1,1h1c0.553,0,1-0.448,1-1S19.553,42,19,42z"/><path d="M25,42h-2c-0.553,0-1,0.448-1,1s0.447,1,1,1h2c0.553,0,1-0.448,1-1S25.553,42,25,42z"/><path d="M28.29,42.29C28.109,42.48,28,42.74,28,43c0,0.26,0.109,0.52,0.29,0.71C28.479,43.89,28.74,44,29,44s0.52-0.11,0.71-0.29 C29.89,43.52,30,43.26,30,43c0-0.26-0.11-0.52-0.29-0.71C29.33,41.92,28.649,41.92,28.29,42.29z"/><path d="M48,33c-1.276,0-2.469,0.349-3.5,0.947C43.469,33.349,42.276,33,41,33c-3.859,0-7,3.14-7,7s3.141,7,7,7 c1.276,0,2.469-0.349,3.5-0.947C45.531,46.651,46.724,47,48,47c3.859,0,7-3.14,7-7S51.859,33,48,33z M46,40 c0,1.394-0.576,2.654-1.5,3.562C43.576,42.654,43,41.394,43,40s0.576-2.654,1.5-3.562C45.424,37.346,46,38.606,46,40z M36,40 c0-2.757,2.243-5,5-5c0.631,0,1.23,0.13,1.787,0.345C41.68,36.583,41,38.212,41,40s0.68,3.417,1.787,4.655 C42.23,44.87,41.631,45,41,45C38.243,45,36,42.757,36,40z M48,45c-0.631,0-1.23-0.13-1.787-0.345C47.32,43.417,48,41.788,48,40 s-0.68-3.417-1.787-4.655C46.77,35.13,47.369,35,48,35c2.757,0,5,2.243,5,5S50.757,45,48,45z"/><path d="M8.255,30h6h1.49h6C22.988,30,24,28.988,24,27.745v-8v-1.49C24,17.012,22.988,16,21.745,16h-7.49h-6 C7.012,16,6,17.012,6,18.255v9.49C6,28.988,7.012,30,8.255,30z M12,24H8v-2h4V24z M8,27.745V26h4v1.745 c0,0.087,0.016,0.17,0.026,0.255H8.255C8.114,28,8,27.886,8,27.745z M22,24h-4v-1.745C18,22.114,18.114,22,18.255,22h3.49 c0.087,0,0.17-0.016,0.255-0.026V24z M21.745,28h-3.771C17.984,27.915,18,27.832,18,27.745V26h4v1.745 C22,27.886,21.886,28,21.745,28z M21.745,18C21.886,18,22,18.114,22,18.255v1.49C22,19.886,21.886,20,21.745,20h-3.49 C17.012,20,16,21.012,16,22.255v5.49C16,27.886,15.886,28,15.745,28h-1.49C14.114,28,14,27.886,14,27.745v-9.49 C14,18.114,14.114,18,14.255,18H21.745z M8.255,18h3.771C12.016,18.085,12,18.168,12,18.255V20H8v-1.745 C8,18.114,8.114,18,8.255,18z"/></symbol><symbol id="email" viewBox="0 0 512 512"><title>email</title><g> <g> <path d="M499.161,170.733L341.257,12.828c-17.091-17.091-44.901-17.091-61.992,0L32.839,259.255 c-8.545,8.546-12.818,19.771-12.818,30.996c0,11.225,4.273,22.45,12.818,30.996l39.619,39.619l-43.503,43.503 c-1.953,1.953-2.929,4.512-2.929,7.071s0.976,5.118,2.929,7.071c3.905,3.905,10.237,3.906,14.142,0L86.6,375.008l18.119,18.12 L2.929,494.919C0.976,496.871,0,499.431,0,501.99c0,2.559,0.976,5.119,2.929,7.071c3.905,3.905,10.237,3.905,14.143,0 L118.863,407.27l71.88,71.881c17.092,17.09,44.901,17.09,61.992,0l246.426-246.427C507.44,224.446,512,213.437,512,201.729 C512,190.02,507.44,179.012,499.161,170.733z M214.473,470.833c-3.508-1.117-6.811-3.046-9.589-5.824L46.981,307.105 c-6.231-6.232-8.263-15.079-6.138-23.036h173.63V470.833z M178.326,264.069l29.653-29.653c3.905-3.905,3.906-10.237,0-14.142 c-3.906-3.905-10.237-3.906-14.142,0l-43.796,43.795h-29.135l90.406-90.406c3.904-3.905,3.905-10.237,0-14.143 c-3.905-3.905-10.237-3.905-14.143,0L92.622,264.069H56.31l227.769-227.77v203.935c0,13.143-10.692,23.835-23.835,23.835H178.326z M485.02,218.583L238.593,465.009c-1.271,1.271-2.659,2.352-4.119,3.276V284.069h25.771c24.17,0,43.835-19.664,43.835-43.835 v-25.771h114.624l-57.867,57.868c-1.952,1.952-2.929,4.512-2.929,7.071c0,2.56,0.976,5.118,2.929,7.071 c3.905,3.905,10.237,3.905,14.143,0l72.002-72.002c0.002-0.002,0.004-0.005,0.006-0.007h41.328 C487.381,215.937,486.284,217.32,485.02,218.583z M304.079,194.463V20.833c7.958-2.125,16.805-0.093,23.036,6.138l157.904,157.904 c2.732,2.731,4.713,6.01,5.853,9.588H304.079z"/> </g> </g><g> <g> <path d="M235.79,135.05c-1.86-1.87-4.44-2.93-7.07-2.93c-2.64,0-5.21,1.06-7.07,2.93c-1.86,1.86-2.93,4.43-2.93,7.07 c0,2.63,1.07,5.21,2.93,7.07c1.86,1.86,4.43,2.93,7.07,2.93c2.63,0,5.21-1.07,7.07-2.93s2.93-4.44,2.93-7.07 C238.72,139.48,237.65,136.91,235.79,135.05z"/> </g> </g><g> <g> <path d="M17.11,430.35c-1.86-1.86-4.44-2.93-7.07-2.93s-5.21,1.07-7.07,2.93c-1.86,1.86-2.93,4.44-2.93,7.07s1.07,5.21,2.93,7.07 c1.86,1.86,4.44,2.93,7.07,2.93c2.64,0,5.21-1.07,7.07-2.93c1.87-1.86,2.93-4.44,2.93-7.07S18.98,432.21,17.11,430.35z"/> </g> </g><g> <g> <path d="M127.018,449.497c-3.906-3.905-10.238-3.905-14.143,0l-45.416,45.416c-1.952,1.952-2.929,4.512-2.929,7.071 c0,2.559,0.976,5.119,2.929,7.072c3.906,3.905,10.238,3.905,14.143,0l45.416-45.416 C130.922,459.734,130.922,453.402,127.018,449.497z"/> </g> </g></symbol><symbol id="social-media" viewBox="0 0 480 480"><title>social-media</title><g> <g> <rect x="160" y="40" width="160" height="16"/> </g> </g><g> <g> <path d="M396,300c0-15.438-12.563-28-28-28h-16V160h-16v112h-20c-15.438,0-28,12.563-28,28c0,7.838,3.258,14.912,8.466,20 c-5.208,5.088-8.466,12.162-8.466,20c0,5.393,1.605,10.39,4.259,14.668C282.689,359.125,276,368.768,276,380 c0,4.311,1.061,8.349,2.809,12H216c0-24.461-12.258-46.109-30.953-59.125C203.125,325.984,216,308.469,216,288 c0-4.418-3.578-8-8-8h-64v-80h-16v80c-13.234,0-24,10.766-24,24v176h16V304c0-4.41,3.586-8,8-8h70.984 c-3.555,13.785-16.102,24-30.984,24h-24c-4.422,0-8,3.582-8,8s3.578,8,8,8c30.875,0,56,25.121,56,56v8c0,4.418,3.578,8,8,8h46.809 c-1.748,3.651-2.809,7.689-2.809,12c0,15.438,12.563,28,28,28v32h16v-32h32h4c15.438,0,28-12.563,28-28 c0-4.357-1.087-8.433-2.871-12.114C372.034,407.278,384,395.051,384,380c0-5.393-1.605-10.39-4.259-14.668 C389.311,360.875,396,351.232,396,340c0-7.838-3.258-14.912-8.466-20C392.742,314.912,396,307.838,396,300z M332,432h-4h-40h-8 c-6.617,0-12-5.383-12-12s5.383-12,12-12h24h28c6.617,0,12,5.383,12,12S338.617,432,332,432z M356,392h-24h-28 c-6.617,0-12-5.383-12-12s5.383-12,12-12h12h40c6.617,0,12,5.383,12,12S362.617,392,356,392z M368,352h-12h-40 c-6.617,0-12-5.383-12-12s5.383-12,12-12h52c6.617,0,12,5.383,12,12S374.617,352,368,352z M368,312h-52c-6.617,0-12-5.383-12-12 s5.383-12,12-12h52c6.617,0,12,5.383,12,12S374.617,312,368,312z"/> </g> </g><g> <g> <path d="M119.977,101.828c-0.164-2.297-1.305-4.414-3.141-5.805l-8.328-6.313C106.516,79.625,97.664,72,87.078,72 c-11.945,0-21.688,9.711-21.844,21.707c-6.391-1.117-12.5-3.57-17.969-7.254l-2.789-1.883c-2.445-1.652-5.617-1.832-8.234-0.434 C33.633,85.523,32,88.242,32,91.199v6.563c0,9.641,2.906,18.836,8.297,26.559l-5.984,6.055c-2.273,2.293-2.938,5.727-1.695,8.707 C33.859,142.059,36.773,144,40,144h38.766c15.461,0,28.242-11.785,29.961-26.91l8.961-9.066 C119.305,106.387,120.141,104.129,119.977,101.828z M95.234,107.977c-1.484,1.496-2.313,3.52-2.313,5.625 c0,7.938-6.352,14.398-14.156,14.398H58.414c1.266-2.914,0.719-6.43-1.648-8.824c-3.734-3.781-6.406-8.539-7.758-13.668 c7.633,3.219,15.836,4.891,24.227,4.891c4.422,0,8-3.582,8-8V94c0-3.309,2.625-6,5.844-6s5.844,2.691,5.844,6 c0,2.504,1.172,4.863,3.164,6.375l3.813,2.887L95.234,107.977z"/> </g> </g><g> <g> <path d="M264,136v-16h-24c-4.422,0-8,3.582-8,8v24h-16v16h16v32h16v-32h16v-16h-16v-16H264z"/> </g> </g><g> <g> <path d="M288,88h-96c-13.234,0-24,10.766-24,24v96c0,13.234,10.766,24,24,24h96c13.234,0,24-10.766,24-24v-96 C312,98.766,301.234,88,288,88z M296,208c0,4.41-3.586,8-8,8h-96c-4.414,0-8-3.59-8-8v-96c0-4.41,3.586-8,8-8h96 c4.414,0,8,3.59,8,8V208z"/> </g> </g><g> <g> <path d="M120,40H24C10.766,40,0,50.766,0,64v96c0,13.234,10.766,24,24,24h96c13.234,0,24-10.766,24-24V64 C144,50.766,133.234,40,120,40z M128,160c0,4.41-3.586,8-8,8H24c-4.414,0-8-3.59-8-8V64c0-4.41,3.586-8,8-8h96c4.414,0,8,3.59,8,8 V160z"/> </g> </g><g> <g> <path d="M456,0h-96c-13.234,0-24,10.766-24,24v96c0,13.234,10.766,24,24,24h96c13.234,0,24-10.766,24-24V24 C480,10.766,469.234,0,456,0z M464,120c0,4.41-3.586,8-8,8h-96c-4.414,0-8-3.59-8-8V80h16.809c3.717,18.234,19.876,32,39.191,32 s35.474-13.766,39.191-32H464V120z M384,72c0-13.234,10.766-24,24-24s24,10.766,24,24s-10.766,24-24,24S384,85.234,384,72z M464,64h-16.809C443.474,45.766,427.315,32,408,32s-35.474,13.766-39.191,32H352V24c0-4.41,3.586-8,8-8h96c4.414,0,8,3.59,8,8V64 z"/> </g> </g><g> <g> <rect x="232" y="328" width="16" height="16"/> </g> </g></symbol><symbol id="giftbox" viewBox="0 0 511.99789 511"><title>giftbox</title><path d="m504.097656 102.808594h-41.6875c1.210938-1.699219 2.308594-3.484375 3.269532-5.355469 5.515624-10.773437 6.261718-23.460937 2.046874-34.8125l-12.632812-33.953125c-4.210938-11.339844-13.058594-20.457031-24.265625-25.011719-11.21875-4.558593-23.925781-4.195312-34.867187 1l-99.976563 47.480469c-4.941406-3.53125-10.984375-5.617188-17.507813-5.617188h-44.953124c-6.523438 0-12.570313 2.089844-17.511719 5.621094l-99.972657-47.488281c-10.941406-5.191406-23.648437-5.554687-34.867187-.996094-11.207031 4.554688-20.054687 13.671875-24.265625 25.007813l-12.632812 33.960937c-4.214844 11.347657-3.46875 24.035157 2.050781 34.808594.957031 1.871094 2.058593 3.660156 3.269531 5.355469h-41.691406c-4.363282 0-7.902344 3.535156-7.902344 7.902344v56.886718c0 4.363282 3.539062 7.902344 7.902344 7.902344 4.363281 0 7.902344-3.539062 7.902344-7.902344v-48.988281h54.886718c.878906.308594 1.769532.59375 2.671875.84375l66.339844 18.261719c-14.742187 22.589844-27.746094 46.351562-38.878906 70.972656h-85.019531v-9.484375c0-4.363281-3.539063-7.898437-7.902344-7.898437-4.363282 0-7.902344 3.535156-7.902344 7.898437v17.386719c0 4.363281 3.539062 7.902344 7.902344 7.902344h28.179687v279.753906c0 4.367187 3.539063 7.902344 7.902344 7.902344h424.03125c4.363281 0 7.902344-3.535157 7.902344-7.902344v-45.882813c0-4.363281-3.539063-7.902343-7.902344-7.902343-4.367187 0-7.902344 3.539062-7.902344 7.902343v37.984375h-156.707031v-266.996094c22.382812 42.394532 37.535156 88.492188 44.507812 136.121094.460938 3.152344 2.773438 5.71875 5.863282 6.507813.648437.167969 1.304687.246093 1.957031.246093 2.441406 0 4.792969-1.132812 6.308594-3.144531 11.359375-15.070312 21.921875-31.203125 31.457031-48.046875 15.96875 10.875 31.472656 23 46.183594 36.125 2.480468 2.210938 6.082031 2.636719 9.007812 1.058594 2.925782-1.574219 4.554688-4.8125 4.070313-8.101562-6.308594-43.035157-18.070313-85.355469-34.742188-125.625h42.089844v202.261718c0 4.367188 3.539063 7.902344 7.902344 7.902344 4.367187 0 7.902343-3.535156 7.902343-7.902344v-202.261718h28.183594c4.363282 0 7.898438-3.539063 7.898438-7.902344v-105.878906c.003906-4.367188-3.53125-7.902344-7.898438-7.902344zm-101.359375-83.859375c7.050781-3.34375 14.910157-3.570313 22.140625-.632813 7.21875 2.933594 12.6875 8.570313 15.402344 15.878906l12.628906 33.949219c2.71875 7.3125 2.253906 15.164063-1.300781 22.105469-3.550781 6.9375-9.648437 11.898438-17.164063 13.964844l-125.785156 34.628906v-37.976562c28.273438-17.3125 98.757813-53.019532 116.300782-28.257813 2.519531 3.558594 7.449218 4.40625 11.011718 1.882813 3.5625-2.523438 4.40625-7.457032 1.882813-11.015626-13.539063-19.113281-42.070313-20.042968-84.808594-2.757812-17.605469 7.117188-33.859375 15.804688-44.386719 21.832031v-5.832031c0-4.230469-.878906-8.261719-2.457031-11.921875zm-169.214843 43.390625h44.953124c7.929688 0 14.378907 6.453125 14.378907 14.378906v65.316406c0 7.929688-6.449219 14.378906-14.378907 14.378906h-44.953124c-7.929688 0-14.378907-6.449218-14.378907-14.378906v-65.316406c0-7.929688 6.449219-14.378906 14.378907-14.378906zm-13.28125 146.34375c7.558593-12.558594 15.785156-24.730469 24.636718-36.464844h22.234375c8.855469 11.734375 17.082031 23.90625 24.636719 36.464844zm-159.851563-118.433594c-3.554687-6.941406-4.019531-14.792969-1.304687-22.101562l12.636718-33.957032c2.710938-7.304687 8.179688-12.941406 15.398438-15.875 7.226562-2.9375 15.089844-2.710937 22.136718.632813l96.539063 45.855469c-1.578125 3.65625-2.457031 7.683593-2.457031 11.917968v6.28125c-10.492188-6.039062-27.113282-14.984375-45.167969-22.285156-42.734375-17.285156-71.269531-16.355469-84.808594 2.757812-2.523437 3.558594-1.679687 8.492188 1.882813 11.015626 3.5625 2.523437 8.492187 1.679687 11.011718-1.882813 17.707032-24.996094 89.351563 11.621094 117.082032 28.738281v37.496094l-125.78125-34.625c-7.519532-2.070312-13.617188-7.03125-17.167969-13.96875zm146.496094 65.960938c3.933593 7.359374 10.824219 12.910156 19.078125 15.046874-36.957032 51.5625-62.398438 110.808594-74.332032 173.082032-8.394531-12.265625-16.242187-25.121094-23.425781-38.398438-1.050781-1.945312-2.863281-3.359375-5.007812-3.902344-2.140625-.542968-4.410157-.164062-6.257813 1.042969-13.160156 8.582031-26.046875 17.996094-38.492187 28.105469 12.816406-67.273438 39.296875-132.140625 77.269531-189.0625zm-155 68.28125h42.09375c-16.671875 40.269531-28.433594 82.585937-34.746094 125.625-.480469 3.289062 1.144531 6.527343 4.070313 8.101562 2.929687 1.574219 6.527343 1.152344 9.007812-1.058594 14.710938-13.125 30.214844-25.25 46.1875-36.125 9.535156 16.84375 20.09375 32.972656 31.457031 48.046875 1.515625 2.011719 3.867188 3.148438 6.308594 3.148438.652344 0 1.308594-.082031 1.957031-.25 3.089844-.789063 5.398438-3.355469 5.859375-6.507813 6.976563-47.628906 22.128907-93.730468 44.507813-136.125v267h-156.703125zm172.507812 271.855468v-271.855468h63.210938v271.855468zm170.664063-193.265625c-1.847656-1.207031-4.121094-1.582031-6.257813-1.039062-2.140625.542969-3.957031 1.957031-5.007812 3.898437-7.183594 13.277344-15.03125 26.136719-23.425781 38.398438-11.933594-62.277344-37.375-121.519532-74.335938-173.078125 8.253906-2.132813 15.148438-7.6875 19.082031-15.050781l51.179688-14.089844c37.964843 56.933594 64.445312 121.800781 77.261719 189.066406-12.449219-10.109375-25.335938-19.523438-38.496094-28.105469zm101.136718-94.394531h-85.015624c-11.132813-24.621094-24.136719-48.382812-38.875-70.972656l66.332031-18.261719c.902343-.25 1.792969-.535156 2.671875-.84375h54.886718zm0 0"/></symbol><symbol id="question" viewBox="0 0 512.001 512.001"><title>question</title><g> <g> <path d="M509.989,463.656L474.84,361.363c16.906-34.174,25.847-72.265,25.907-110.593c0.102-66.002-25.435-128.411-71.909-175.727 C382.357,27.718,320.418,1.08,254.433,0.033c-34.571-0.555-68.117,5.815-99.757,18.912c-30.517,12.633-57.884,30.932-81.34,54.388 c-23.457,23.456-41.756,50.823-54.388,81.34c-13.097,31.64-19.46,65.203-18.913,99.757 c1.045,65.985,27.684,127.924,75.009,174.406c47.224,46.383,109.472,71.912,175.332,71.911c0.129,0,0.265,0,0.394,0 c38.328-0.06,76.419-9.001,110.594-25.907l102.293,35.149c3.934,1.352,7.966,2.011,11.954,2.011 c9.474,0,18.69-3.722,25.678-10.712C511.218,491.359,514.553,476.939,509.989,463.656z M479.824,479.824 c-1.007,1.007-3.163,2.535-6.304,1.457l-108.394-37.246c-1.603-0.55-3.27-0.824-4.932-0.824c-2.45,0-4.889,0.593-7.098,1.762 c-31.327,16.573-66.727,25.363-102.374,25.417c-119.55,0.193-218.442-96.91-220.336-216.441 C29.433,193.81,52.309,137.289,94.8,94.798c42.491-42.49,98.995-65.362,159.151-64.411 c119.53,1.895,216.625,100.738,216.439,220.336c-0.056,35.648-8.845,71.048-25.417,102.373c-1.962,3.708-2.301,8.063-0.938,12.03 l37.246,108.394C482.36,476.659,480.832,478.818,479.824,479.824z"/> </g> </g><g> <g> <path d="M247.91,362.748c-7.939,0-15.545,6.981-15.178,15.178c0.368,8.223,6.669,15.178,15.178,15.178 c7.939,0,15.545-6.981,15.178-15.178C262.72,369.702,256.419,362.748,247.91,362.748z"/> </g> </g><g> <g> <path d="M247.91,127.674c-41.639,0-75.515,33.876-75.515,75.515c0,8.382,6.796,15.178,15.178,15.178s15.178-6.796,15.178-15.178 c0-24.9,20.259-45.159,45.159-45.159s45.159,20.259,45.159,45.159s-20.259,45.159-45.159,45.159 c-8.382,0-15.178,6.796-15.178,15.178v61.905c0,8.382,6.796,15.178,15.178,15.178c8.382,0,15.178-6.795,15.178-15.179v-48.259 c34.389-7.045,60.337-37.54,60.337-73.982C323.425,161.55,289.549,127.674,247.91,127.674z"/> </g> </g></symbol><symbol id="panel" viewBox="0 0 496.941 496.941"><title>panel</title><path d="M146.824,133.271H54.965C24.847,133.271,0,161.129,0,195.765v156.612c0,4.518,3.012,7.529,7.529,7.529h32.376v110.682 c0,14.306,11.294,25.6,25.6,25.6h71.529c14.306,0,25.6-11.294,25.6-25.6V360.659h32.376c4.518,0,7.529-3.012,7.529-7.529V195.765 C202.541,161.129,177.694,133.271,146.824,133.271z M187.482,345.6h-24.847v-79.812c0-4.518-3.012-7.529-7.529-7.529 s-7.529,3.012-7.529,7.529v205.553c0,6.023-4.518,10.541-10.541,10.541h-28.612V358.4c0-4.518-3.012-7.529-7.529-7.529 s-7.529,3.012-7.529,7.529v123.482H65.506c-6.023,0-10.541-4.518-10.541-10.541V265.788c0-4.518-3.012-7.529-7.529-7.529 s-7.529,3.012-7.529,7.529V345.6H15.059V195.765c0-26.353,18.071-47.435,39.906-47.435h91.859 c22.588,0,40.659,21.082,40.659,47.435V345.6z"/><path d="M100.894,123.482c33.882,0,61.741-27.859,61.741-61.741C162.635,27.859,134.777,0,100.894,0 C67.012,0,39.906,27.859,39.906,61.741C39.906,95.624,67.012,123.482,100.894,123.482z M100.894,15.059 c25.6,0,46.682,21.082,46.682,46.682c0,25.6-21.082,46.682-46.682,46.682c-25.6,0-46.682-21.082-46.682-46.682 C54.965,36.141,75.294,15.059,100.894,15.059z"/><path d="M442.729,145.318c2.259,0,3.765-0.753,5.271-2.259l46.682-49.694c3.012-3.012,3.012-7.529,0-10.541L448,33.129 c-1.506-1.506-3.765-2.259-5.271-2.259h-32.376V7.529c0-4.518-3.012-7.529-7.529-7.529h-40.659c-4.518,0-7.529,3.012-7.529,7.529 v24.094h-70.776c-4.518,0-7.529,3.012-7.529,7.529v99.388c0,4.518,3.012,7.529,7.529,7.529h70.776v42.165h-46.682 c-2.259,0-3.765,0.753-5.271,2.259L256,239.435c-3.012,3.012-3.012,7.529,0,10.541l46.682,49.694 c1.506,1.506,3.765,2.259,5.271,2.259h46.682v179.953h-82.071c-4.518,0-7.529,3.012-7.529,7.529s3.012,7.529,7.529,7.529 c149.082,0,53.459,0,205.553,0c4.518,0,7.529-3.012,7.529-7.529s-3.012-7.529-7.529-7.529h-67.765V301.929h56.471 c4.518,0,7.529-3.012,7.529-7.529v-99.388c0-4.518-3.012-7.529-7.529-7.529h-56.471v-42.165H442.729z M369.694,15.059h25.6 v16.565h-25.6V15.059z M395.294,481.882h-25.6V301.929h25.6V481.882z M459.294,202.541v84.329H310.965l-39.153-42.165 l39.153-42.165c9.788,0,57.224,0,91.859,0H459.294z M369.694,187.482v-42.165h25.6v42.165H369.694z M291.388,131.012V46.682 h148.329l39.153,42.165l-39.153,42.165H291.388z"/></symbol><symbol id="return" viewBox="0 -6 512.0001 512"><title>return</title><path d="m270.023438 418.285156c4.140624 0 7.5-3.355468 7.5-7.5v-13.175781c0-4.144531-3.359376-7.503906-7.5-7.503906-4.144532 0-7.503907 3.359375-7.503907 7.503906v13.175781c0 4.144532 3.359375 7.5 7.503907 7.5zm0 0"/><path d="m415.644531 418.285156c4.144531 0 7.503907-3.355468 7.503907-7.5v-13.175781c0-4.144531-3.359376-7.503906-7.503907-7.503906-4.140625 0-7.5 3.359375-7.5 7.503906v13.175781c0 4.144532 3.359375 7.5 7.5 7.5zm0 0"/><path d="m342.832031 425.320312c9.171875 0 17.777344-3.832031 23.621094-10.515624 2.726563-3.117188 2.40625-7.855469-.710937-10.582032-3.121094-2.726562-7.859376-2.410156-10.585938.710938-2.992188 3.421875-7.484375 5.382812-12.324219 5.382812-4.839843 0-9.328125-1.960937-12.320312-5.382812-2.726563-3.121094-7.464844-3.4375-10.585938-.710938-3.121093 2.726563-3.4375 7.464844-.710937 10.582032 5.839844 6.683593 14.449218 10.515624 23.617187 10.515624zm0 0"/><path d="m106.660156 90.941406s67.753906 59.050782 67.816406 59.105469c11.597657 10.113281 30.203126 1.578125 30.203126-13.738281v-11.675782c19.824218 1.324219 38.3125 6.394532 53.835937 14.804688 20.992187 11.378906 37.371094 31.328125 44.941406 54.738281 2.453125 7.597657 9.519531 12.699219 17.574219 12.699219 1.917969 0 3.839844-.15625 5.753906-.242188 10.046875-.457031 18.089844-9.261718 17.550782-19.316406l-.007813-.136718c-1.015625-17.960938-5.410156-35.9375-12.707031-51.988282-13.785156-30.324218-37.355469-55.066406-72.050782-75.640625-17.429687-10.335937-36.46875-16.253906-54.894531-21.960937 0 0 0-19.484375 0-19.5 0-15.277344-18.675781-23.785156-30.199219-13.738282 0 0-67.71875 59.019532-67.816406 59.105469-8.210937 7.160157-8.195312 20.339844 0 27.484375zm9.859375-16.171875s67.71875-59.023437 67.816407-59.109375c2.054687-1.789062 5.339843-.300781 5.339843 2.429688v25.222656c0 3.484375 2.402344 6.511719 5.796875 7.304688 1.441406.335937 3.050782.773437 4.53125 1.234374 18.480469 5.722657 35.933594 11.128907 51.914063 20.605469 31.96875 18.957031 53.574219 41.511719 66.046875 68.945313 6.535156 14.378906 10.472656 30.5 11.382812 46.601562 0 0 .003906.109375.003906.109375.101563 1.859375-1.414062 3.449219-3.25 3.53125l-4.902343.222657-.167969.003906c-1.503906 0-2.863281-.949219-3.300781-2.308594-8.742188-27.042969-27.722657-50.121094-52.070313-63.316406-19.433594-10.53125-42.84375-16.382813-67.703125-16.925782-4.363281-.09375-8.285156 2.894532-8.285156 7.488282v19.5c0 2.6875-3.277344 4.226562-5.339844 2.429687 0 0-67.816406-59.105469-67.816406-59.105469-1.453125-1.273437-1.449219-3.597656.003906-4.863281zm0 0"/><path d="m22.289062 351.367188h18.140626v118.011718c0 16.855469 13.710937 30.566406 30.5625 30.566406h370.015624c16.851563 0 30.5625-13.710937 30.5625-30.566406v-118.011718h18.140626c15.507812 0 26.488281-16.183594 20.738281-30.597657l-39.414063-98.808593c-1.136718-2.851563-3.898437-4.722657-6.964844-4.722657h-39.625c-4.140624 0-7.5 3.359375-7.5 7.5 0 4.144531 3.359376 7.503907 7.5 7.503907h34.539063s37.441406 93.867187 37.527344 94.085937c1.898437 4.753906-1.703125 10.035156-6.800781 10.035156h-234.96875c-2.976563 0-5.699219-1.84375-6.800782-4.609375l-39.695312-99.515625h186.195312c4.140625 0 7.5-3.355469 7.5-7.5s-3.359375-7.5-7.5-7.5h-346.507812c-3.070313 0-5.832032 1.867188-6.96875 4.71875 0 0-39.332032 98.613281-39.410156 98.8125-5.757813 14.425781 5.222656 30.597657 20.734374 30.597657zm174.886719 79.347656c4.144531 0 7.503907-3.355469 7.503907-7.5v-159.421875l29.324218 73.523437c3.40625 8.535156 11.546875 14.050782 20.738282 14.050782h201.824218v118.011718c0 8.582032-6.980468 15.5625-15.558594 15.5625h-236.328124v-31.71875c0-4.144531-3.359376-7.503906-7.503907-7.503906-4.140625 0-7.5 3.359375-7.5 7.503906v31.71875h-118.683593c-8.578126 0-15.558594-6.980468-15.558594-15.5625v-118.011718h84.179687c9.074219 0 17.375-5.625 20.738281-14.054688l29.324219-73.519531v159.421875c0 4.144531 3.359375 7.5 7.5 7.5zm-181.6875-104.386719 37.527344-94.085937h133.09375s-39.691406 99.507812-39.695313 99.511718c-1.105468 2.777344-3.804687 4.609375-6.800781 4.609375 0 0-117.167969 0-117.324219 0-5.097656 0-8.691406-5.296875-6.800781-10.035156zm0 0"/></symbol><symbol id="receipt" viewBox="-70 0 477 477.76"><title>receipt</title><path d="m76.949219 477.761719 22.863281-32 22.855469 32 22.855469-32 22.855468 32 22.855469-32 22.859375 32 22.855469-32 22.863281 32 22.855469-32 22.855469 32 30.855468-43.203125v-434.558594h-336v434.558594l30.855469 43.203125 22.859375-32zm-60.570313-48.320313v-413.441406h304v413.441406l-14.855468 20.796875-22.855469-32-22.855469 32-22.863281-32-22.855469 32-22.859375-32-22.855469 32-22.855468-32-22.855469 32-22.855469-32-22.863281 32-22.855469-32-22.859375 32zm0 0"/><path d="m248.378906 80h-160v48h160zm-16 32h-128v-16h128zm0 0"/><path d="m48.378906 192h240v-48h-240zm16-32h208v16h-208zm0 0"/><path d="m32.378906 32h16v16h-16zm0 0"/><path d="m64.378906 32h16v16h-16zm0 0"/><path d="m96.378906 32h16v16h-16zm0 0"/><path d="m128.378906 32h16v16h-16zm0 0"/><path d="m160.378906 32h16v16h-16zm0 0"/><path d="m192.378906 32h16v16h-16zm0 0"/><path d="m224.378906 32h16v16h-16zm0 0"/><path d="m256.378906 32h16v16h-16zm0 0"/><path d="m288.378906 32h16v16h-16zm0 0"/><path d="m48.378906 216h160v16h-160zm0 0"/><path d="m48.378906 248h160v16h-160zm0 0"/><path d="m48.378906 280h160v16h-160zm0 0"/><path d="m48.378906 312h160v16h-160zm0 0"/><path d="m48.378906 344h160v16h-160zm0 0"/><path d="m256.378906 216h32v16h-32zm0 0"/><path d="m256.378906 248h32v16h-32zm0 0"/><path d="m256.378906 280h32v16h-32zm0 0"/><path d="m256.378906 312h32v16h-32zm0 0"/></symbol><symbol id="home" viewBox="0 0 512 512"><title>home</title><g> <g> <path d="M506.555,208.064L263.859,30.367c-4.68-3.426-11.038-3.426-15.716,0L5.445,208.064 c-5.928,4.341-7.216,12.665-2.875,18.593s12.666,7.214,18.593,2.875L256,57.588l234.837,171.943c2.368,1.735,5.12,2.57,7.848,2.57 c4.096,0,8.138-1.885,10.744-5.445C513.771,220.729,512.483,212.405,506.555,208.064z"/> </g> </g><g> <g> <path d="M442.246,232.543c-7.346,0-13.303,5.956-13.303,13.303v211.749H322.521V342.009c0-36.68-29.842-66.52-66.52-66.52 s-66.52,29.842-66.52,66.52v115.587H83.058V245.847c0-7.347-5.957-13.303-13.303-13.303s-13.303,5.956-13.303,13.303v225.053 c0,7.347,5.957,13.303,13.303,13.303h133.029c6.996,0,12.721-5.405,13.251-12.267c0.032-0.311,0.052-0.651,0.052-1.036v-128.89 c0-22.009,17.905-39.914,39.914-39.914s39.914,17.906,39.914,39.914v128.89c0,0.383,0.02,0.717,0.052,1.024 c0.524,6.867,6.251,12.279,13.251,12.279h133.029c7.347,0,13.303-5.956,13.303-13.303V245.847 C455.549,238.499,449.593,232.543,442.246,232.543z"/> </g> </g></symbol><symbol id="laurel-wreath" viewBox="0 0 511.99619 511"><title>laurel-wreath</title><path d="m504.792969 132.21875-6.59375-14.191406-14.492188 6.597656c-16.117187 7.820312-28.667969 21.179688-36.855469 37.199219-8.480468-19.476563-19.234374-38.035157-30.910156-55.113281 25.222656-27.183594 25.136719-68.457032.605469-95.117188l-10.191406-11.09375-11.09375 10.492188c-12.085938 11.460937-19.675781 25.742187-23.058594 40.792968-21.105469-23.082031-38.070313-37.859375-39.9375-39.457031l-19.5 22.75c.425781.375 16.375 14.238281 36.542969 36.226563-15.546875 1.9375-30.476563 8.933593-42.792969 20.339843l-10.492187 10.195313 9.894531 10.792968c12.292969 13.492188 29.980469 20.386719 48.867187 20.386719 16.164063 0 28.3125-4.472656 36.835938-8.757812 9.285156 13.578125 17.84375 28.0625 24.917968 43.078125-13.777343-1.570313-27.867187.839844-41.367187 7.054687l-14.390625 6.59375 7.195312 14.09375c12.472657 22.945313 39.722657 33.6875 66.144532 35.25.046875.828125.238281 1.65625.269531 2.484375.648437 16.863282-2.589844 32.238282-9.117187 46.578125-7.179688-14.863281-20.453126-26.515625-40.203126-34.246093l-11.992187-4.792969-6.597656 10.792969c-8.183594 14.183593.617187 51.121093 19.519531 76.757812-13.6875 12.167969-25.972656 21.007812-37.527344 28.300781 2.554688-16.570312-.761718-33.882812-10.175781-48.996093l-7.496094-12.289063-12.589843 7.195313c-25.183594 14.292968-39.59375 53.171874-29.0625 86.800781-10.699219 6.289062-21.597657 13.859375-33.148438 24.03125-11.609375-10.226563-22.558594-17.8125-33.308594-24.121094 10.597656-35.414063-4.480468-72.847656-28.90625-86.710937l-12.59375-7.199219-7.492187 12.292969c-9.414063 15.113281-12.734375 32.421874-10.175781 48.992187-11.554688-7.292969-23.84375-16.128906-37.527344-28.296875 18.898437-25.640625 27.703125-62.578125 19.519531-76.761719l-6.597656-10.792969-11.992188 4.796876c-21.667969 8.480468-34.265625 21.5625-40.203125 34.242187-6.527344-14.339844-9.765625-29.710937-9.117187-46.578125.03125-.824219.222656-1.652344.269531-2.472656 26.722656-1.566406 53.785156-12.523438 66.140625-35.257813l7.195313-14.09375-14.390626-6.59375c-13.742187-6.328125-27.9375-8.890625-41.132812-7.566406 7.03125-14.835937 15.507812-29.144531 24.6875-42.566406 8.519531 4.285156 20.671875 8.757812 36.832031 8.757812 18.890625 0 36.578125-6.894531 48.871094-20.390625l9.894531-10.792968-10.492187-10.195313c-11.945313-11.058594-26.726563-18.195313-43.027344-20.082031 20.28125-22.144532 36.347656-36.105469 36.777344-36.480469l-19.5-22.75c-1.871094 1.59375-18.832031 16.371094-39.9375 39.457031-3.386719-15.054687-10.972657-29.332031-23.058594-40.792968l-11.09375-10.492188-10.195313 11.089844c-24.386718 26.507812-24.738281 67.824218.609376 95.117187-11.675782 17.078125-22.429688 35.640625-30.910157 55.117188-8.1875-16.023438-21.738281-29.382813-37.855469-37.199219l-13.492187-6.597656-6.59375 13.191406c-18.761719 37.519531.617187 84.734375 40.882813 96.15625-.097657 1.4375-.390626 2.859375-.449219 4.296875-.753907 19.765625 2.496093 38.335937 9.570312 55.625-13.867187-2.179687-28.851562-1.921875-42.210937 3.421875l-14.691406 5.996094 6.894531 14.390625c21.304687 47.089843 66.558593 55.757812 96.804687 37.3125 16.1875 14.703125 30.367188 25.160156 43.285156 33.3125-12.734374 6.84375-24.105468 16.757812-32.355468 30.113281l-8.09375 13.492188 13.792968 7.496093c31.9375 17.652344 66.535157 8.90625 88.101563-17.359375 8.390625 5.070313 16.902344 11.148438 25.773437 18.777344-13.417968 14.980469-28.011718 36.152344-44.507812 61.652344l25.179688 16.28125c15.191406-23.488282 28.53125-43 40.820312-56.746094 12.289062 13.746094 25.628906 33.257812 40.816406 56.746094l25.179688-16.28125c-16.492188-25.5-31.085938-46.667969-44.507813-61.648438 8.933594-7.679687 17.5-13.792968 25.941407-18.886718 21.773437 27.023437 56.890624 34.625 87.9375 17.464843l13.792968-7.496093-8.09375-13.492188c-8.25-13.355469-19.617187-23.269531-32.351562-30.113281 12.914062-8.152344 27.09375-18.609375 43.28125-33.3125 30.246094 18.445312 75.5 10.777343 96.804687-36.3125l6.894531-14.390625-14.691406-6.996094c-14.226562-5.6875-29.6875-5.550781-42.121094-3.585938 7.023438-17.238281 10.230469-35.757812 9.476563-55.460937-.054687-1.4375-.347656-2.863281-.445313-4.296875 40.261719-11.417969 59.640626-57.636719 40.878907-95.15625zm0 0"/></symbol><symbol id="log-out" viewBox="0 -16 364.292 364"><title>log-out</title><path d="m327.582031.148438h-134.199219c-20.359374-.1250005-36.964843 16.277343-37.089843 36.636718v35.707032c0 3.867187 3.132812 7 7 7 3.863281 0 7-3.132813 7-7v-35.640626c.078125-12.621093 10.378906-22.789062 23-22.703124h134.289062c12.4375-.105469 22.605469 9.898437 22.710938 22.339843v.363281 258.59375c.09375 12.441407-9.910157 22.605469-22.351563 22.703126h-134.558594c-12.617187.132812-22.957031-9.988282-23.089843-22.609376v-34.992187c0-3.867187-3.136719-7-7-7-3.867188 0-7 3.132813-7 7v34.898437c.089843 20.363282 16.667969 36.792969 37.03125 36.703126h134.257812c20.179688.09375 36.617188-16.191407 36.710938-36.371094v-258.925782c.089843-20.179687-16.195313-36.613281-36.378907-36.703124-.109374 0-.222656 0-.332031 0zm0 0"/><path d="m24.082031 173.148438h243.910157c3.867187 0 7-3.136719 7-7 0-3.867188-3.132813-7-7-7h-245.464844l55.617187-64.085938c2.53125-2.921875 2.21875-7.34375-.699219-9.875-2.921874-2.535156-7.34375-2.222656-9.875.699219l-64.867187 74.742187c-1.769531 1.375-2.7773438 3.519532-2.69921875 5.761719.07812495 2.242187 1.22656275 4.3125 3.08984375 5.566406l64.8125 64.8125c2.734375 2.734375 7.164062 2.734375 9.898438 0 2.734374-2.734375 2.734374-7.167969 0-9.898437zm0 0"/></symbol></svg>