<?xml version="1.0" encoding="utf-8"?>
<!-- Generator: Adobe Illustrator 23.0.2, SVG Export Plug-In . SVG Version: 6.00 Build 0)  -->
<svg version="1.1" id="Calque_1" xmlns="http://www.w3.org/2000/svg" xmlns:xlink="http://www.w3.org/1999/xlink" x="0px" y="0px"
	 viewBox="0 0 125.03 110.12" style="enable-background:new 0 0 125.03 110.12;" xml:space="preserve">
<style type="text/css">
	.st0{fill:#DDDDDD;}
	.st1{fill:#F5F6F8;}
	.st2{fill:#EA4D66;}
	.st3{fill:#EDEDED;}
	.st4{fill:#D92667;}
	.st5{fill:#4D53A0;}
	.st6{fill:#FFFFFF;}
	.st7{fill:#EDEDED;stroke:#C6C6C6;stroke-width:0.15;stroke-miterlimit:10;}
</style>
<path class="st0" d="M106.24,110.12H18.72c-3.48,0-6.3-2.82-6.3-6.3V6.52c0-3.48,2.82-6.3,6.3-6.3h87.52c3.48,0,6.3,2.82,6.3,6.3
	v97.3C112.53,107.31,109.71,110.12,106.24,110.12z"/>
<rect x="50.03" y="4.97" class="st1" width="25" height="27.15"/>
<path class="st2" d="M25,32.14c8.34,0,16.68,0,25.02,0c0.64-9.06,1.29-18.12,1.93-27.17c-8.35,0-16.69,0-25.04,0
	C26.27,14.03,25.64,23.09,25,32.14z"/>
<path class="st3" d="M75.03,32.12c0,6.86-5.64,12.5-12.5,12.5s-12.5-5.64-12.5-12.5C58.36,32.12,66.7,32.12,75.03,32.12z"/>
<path class="st4" d="M50.11,32.14c0,6.86-5.64,12.5-12.5,12.5s-12.5-5.64-12.5-12.5C33.44,32.14,41.77,32.14,50.11,32.14z"/>
<path class="st3" d="M25,32.14c0,6.86-5.64,12.5-12.5,12.5S0,39,0,32.14C8.33,32.14,16.67,32.14,25,32.14z"/>
<path class="st4" d="M100.03,32.12c0,6.86-5.64,12.5-12.5,12.5s-12.5-5.64-12.5-12.5C83.36,32.12,91.7,32.12,100.03,32.12z"/>
<path class="st3" d="M125.03,32.12c0,6.86-5.64,12.5-12.5,12.5s-12.5-5.64-12.5-12.5C108.36,32.12,116.7,32.12,125.03,32.12z"/>
<path class="st1" d="M0,32.16c8.33-0.01,16.67-0.01,25-0.02c1.07-9.06,2.13-18.12,3.2-27.17c-8.33,0-16.67,0-25,0
	C2.13,14.03,1.07,23.1,0,32.16z"/>
<path class="st2" d="M100.03,32.12c-8.34,0-16.68,0-25.02,0c-0.64-9.05-1.29-18.1-1.93-27.15c8.35,0,16.69,0,25.04,0
	C98.76,14.02,99.4,23.07,100.03,32.12z"/>
<path class="st1" d="M125.03,32.14c-8.33-0.01-16.67-0.01-25-0.02C98.96,23.08,97.9,14.04,96.83,5c8.33,0,16.67,0,25,0
	C122.9,14.05,123.96,23.1,125.03,32.14z"/>
<path class="st5" d="M50.84,64.69H26.22c-0.61,0-1.11,0.5-1.11,1.11v44.32h26.84V65.8C51.95,65.19,51.45,64.69,50.84,64.69z"/>
<circle class="st6" cx="49.6" cy="87.41" r="1.34"/>
<circle class="st5" cx="49.6" cy="87.41" r="0.36"/>
<path class="st7" d="M80.41,76.69h-12V65.8c0-0.61,0.5-1.11,1.11-1.11h10.89V76.69z"/>
<rect x="80.41" y="64.69" class="st7" width="12" height="12"/>
<path class="st7" d="M104.41,76.69h-12v-12h10.89c0.61,0,1.11,0.5,1.11,1.11V76.69z"/>
<path class="st7" d="M80.41,88.69H69.52c-0.61,0-1.11-0.5-1.11-1.11V76.69h12V88.69z"/>
<rect x="80.41" y="76.69" class="st7" width="12" height="12"/>
<path class="st7" d="M103.3,88.69H92.41v-12h12v10.89C104.41,88.2,103.92,88.69,103.3,88.69z"/>
<path class="st5" d="M121.08,5H3.88C3.46,5,3.12,4.66,3.12,4.24v0C3.12,1.9,5.02,0,7.36,0l110.23,0c2.34,0,4.24,1.9,4.24,4.24v0
	C121.84,4.66,121.5,5,121.08,5z"/>
</svg>
