<svg xmlns="http://www.w3.org/2000/svg" xmlns:xlink="http://www.w3.org/1999/xlink" viewBox="0 0 154.52 141.77"><defs><style>.cls-1{isolation:isolate;}.cls-2{fill:#8b3fae;}.cls-3{stroke:#8b3fae;stroke-miterlimit:10;stroke-width:2px;fill:url(#Gradiente_sem_nome_19);}.cls-4{fill:url(#Gradiente_sem_nome_61);}.cls-5{fill:#383838;}.cls-6{fill:#4b28c4;}.cls-7{fill:url(#Gradiente_sem_nome_36);}.cls-10,.cls-8{opacity:0.5;mix-blend-mode:overlay;}.cls-8{fill:url(#Gradiente_sem_nome_83);}.cls-9{fill:url(#Gradiente_sem_nome_19-2);}.cls-10{fill:url(#Gradiente_sem_nome_83-2);}.cls-11{fill:#ff57a4;}.cls-12{fill:#ff79b6;}.cls-13{fill:#6535b9;}.cls-14{fill:#3f02a8;}.cls-15{fill:#525dea;}</style><linearGradient id="Gradiente_sem_nome_19" x1="11.36" y1="-2.07" x2="152.76" y2="163.89" gradientTransform="matrix(-1, 0, 0, 1, 144.11, 0)" gradientUnits="userSpaceOnUse"><stop offset="0" stop-color="#8b3fae"/><stop offset="0.16" stop-color="#9140ae"/><stop offset="0.36" stop-color="#a043ac"/><stop offset="0.58" stop-color="#bb49aa"/><stop offset="0.82" stop-color="#df50a7"/><stop offset="1" stop-color="#ff57a4"/></linearGradient><linearGradient id="Gradiente_sem_nome_61" x1="77.16" y1="29.46" x2="77.16" y2="97.06" gradientUnits="userSpaceOnUse"><stop offset="0" stop-color="#fff"/><stop offset="0.28" stop-color="#fbfbfc"/><stop offset="0.58" stop-color="#eeeff1"/><stop offset="0.88" stop-color="#d8dce0"/><stop offset="1" stop-color="#ced2d8"/></linearGradient><linearGradient id="Gradiente_sem_nome_36" x1="48.2" y1="12.75" x2="120.36" y2="120.6" gradientUnits="userSpaceOnUse"><stop offset="0" stop-color="#525dea"/><stop offset="0.27" stop-color="#5154e4"/><stop offset="0.71" stop-color="#4e3cd2"/><stop offset="1" stop-color="#4b28c4"/></linearGradient><linearGradient id="Gradiente_sem_nome_83" x1="79.54" y1="16.92" x2="50.87" y2="83.81" gradientUnits="userSpaceOnUse"><stop offset="0" stop-color="#ced2d8"/><stop offset="0.51" stop-color="#ccd0d7"/><stop offset="0.7" stop-color="#c5cad2"/><stop offset="0.83" stop-color="#babeca"/><stop offset="0.94" stop-color="#a9aebe"/><stop offset="1" stop-color="#9ba0b4"/></linearGradient><linearGradient id="Gradiente_sem_nome_19-2" x1="-12.23" y1="17.21" x2="133.51" y2="188.27" gradientTransform="matrix(1, 0, 0, 1, 0, 0)" xlink:href="#Gradiente_sem_nome_19"/><linearGradient id="Gradiente_sem_nome_83-2" x1="0" y1="122.37" x2="153.56" y2="122.37" xlink:href="#Gradiente_sem_nome_83"/></defs><title>langage</title><g class="cls-1"><g id="Calque_2" data-name="Calque 2"><g id="OBJECTS"><path class="cls-2" d="M61.83,60.29h0a.33.33,0,0,0,.16-.39c-.1-.27-.2-.52-.32-.77,0,0,0-.08,0-.12a.32.32,0,0,0,0-.14s0-.12-.06-.25q-.45-3.31-1-6.38a.3.3,0,0,0,0-.26c-.05-.15-.1-.3-.16-.44-.61-3-1.32-5.82-2.1-8.45h0c-.94-3.17-2-6.06-3-8.69,0,0,0,0,0-.08a9.07,9.07,0,0,0-.61-1.41c-.79-1.83-1.6-3.52-2.4-5.07-.36-.72-.74-1.41-1.11-2.09a8.44,8.44,0,0,0-1.72-3c-.3-.49-.6-1-.9-1.44h0A8.74,8.74,0,0,0,47.64,20c-1.16-1.74-2.29-3.27-3.34-4.6h0C44.23,15.28,38,4.75,29.12,0a.33.33,0,0,0-.4.07.33.33,0,0,0,0,.41s4,5.54,15,15.22c.38.48.77,1,1.17,1.51-.41-.32-.86-.65-1.35-1-3.32-2.19-9.31-4.67-19-4a.33.33,0,0,0,0,.65c.18,0,16.94,1.87,23.17,8.43-2.88-1.7-6.76-1.69-10.11-1.68H36.19c-2.66,0-8.56-.78-11.85-3.54a.32.32,0,0,0-.43,0,.34.34,0,0,0-.05.43A13.41,13.41,0,0,0,30.6,21a17.76,17.76,0,0,0,4.06.77l1.62.12c6.63.49,11.86.87,14.27,4.1.38.69.76,1.39,1.13,2.12.29.57.59,1.17.88,1.78a17.18,17.18,0,0,0-3.11-2.58c-3.31-2.2-9.31-4.68-19-4a.33.33,0,0,0,0,.65c.13,0,10,1.11,17.43,4.57a37.78,37.78,0,0,0-6.16-.33H40.31c-2.67,0-8.57-.77-11.85-3.54a.35.35,0,0,0-.44,0,.32.32,0,0,0,0,.43,13.29,13.29,0,0,0,6.74,4.47l.44.13c-1.62-.07-3.35-.08-5.22,0a.32.32,0,0,0-.31.31.33.33,0,0,0,.28.34c.18,0,15.05,2.31,23.07,7.47A26.28,26.28,0,0,0,44.74,37H43.38c-2.66,0-8.57-.77-11.85-3.54a.33.33,0,0,0-.48.44,13.35,13.35,0,0,0,6.74,4.47,18.34,18.34,0,0,0,4.05.77l1.63.12c6.61.49,11.83.87,14.25,4.08.42,1.42.82,2.91,1.2,4.44a14.65,14.65,0,0,0-3-3.3c-3.33-2.75-9.92-5.92-22.43-5.4a.33.33,0,0,0,0,.65c.18,0,15.25,2.35,22.71,7.6-2.48-1-5.5-1-8.15-1H46.79c-2.45,0-7.89-.71-10.91-3.26a.33.33,0,0,0-.48.44,12.34,12.34,0,0,0,6.23,4.13,17,17,0,0,0,3.74.71l1.5.11c6,.44,10.74.8,13,3.62.27,1.39.53,2.82.76,4.3-2-3.33-7.65-8.75-23.17-8.11a.33.33,0,0,0-.31.31.32.32,0,0,0,.28.34c.16,0,14.1,2.17,20.75,7a18.8,18.8,0,0,0-6.6-.75h-1c-2.34,0-6.66-.74-9-2.68a.33.33,0,0,0-.48.44,10.17,10.17,0,0,0,5.17,3.43,14,14,0,0,0,3.1.59l1.23.09c4.76.35,8.57.63,10.5,2.73a123.41,123.41,0,0,1,.06,28.45l.66.07A124.77,124.77,0,0,0,61.83,60.29Zm-8.4-24.93A24.49,24.49,0,0,0,43,30.67c5.36.44,9.55,1.1,11.65,3.84.45,1.11.9,2.27,1.34,3.48A15.3,15.3,0,0,0,53.43,35.36Z"/><path class="cls-3" d="M131.09,101.22s5.3-7.37,5.3-38.46c0-21.42-2.51-31.58-4.08-35.83A4.74,4.74,0,0,0,128.23,24c-6.07-.58-22-1.78-49.52-1.79-29.4,0-46.28,1.22-52.6,1.8A4.73,4.73,0,0,0,22,27c-1.56,4.25-4.07,14.41-4.07,35.81,0,31.09,5.29,38.46,5.29,38.46Z"/><path class="cls-4" d="M27.65,97.64a2.33,2.33,0,0,1-2.26-1.53C24.11,92,22,82.23,22,62.76c0-21,2.43-30.78,3.88-34.71a.76.76,0,0,1,.67-.49c5.83-.53,22.54-1.78,51.77-1.78h.42c27.67,0,43.55,1.24,49.09,1.77a.79.79,0,0,1,.67.48c1.45,3.94,3.88,13.68,3.88,34.73,0,19.47-2.14,29.25-3.42,33.35a2.33,2.33,0,0,1-2.26,1.53Z"/><polygon class="cls-5" points="23.22 101.22 3.18 105.63 151.14 105.63 131.09 101.22 23.22 101.22"/><polyline class="cls-6" points="23.22 101.22 3.18 105.7 3.18 103.08 23.22 98.59"/><polyline class="cls-6" points="131.09 101.22 151.14 105.7 151.14 103.08 131.09 98.59"/><rect class="cls-6" x="23.22" y="98.59" width="107.87" height="2.63"/><circle class="cls-7" cx="77.26" cy="56.18" r="51.37"/><path class="cls-6" d="M60.37,104.73v-.79l1.22-.42a.89.89,0,0,0,.61-.84v-.39a.88.88,0,0,1,.88-.89h.51a.88.88,0,0,0,.58-.21L66.73,99a.87.87,0,0,0,.31-.67V97.17a.88.88,0,0,1,.43-.76l3-1.82a1,1,0,0,0,.22-.19l1.85-2.18a.91.91,0,0,0,.21-.57v-3A.88.88,0,0,1,73,88l1.85-1.85a.89.89,0,0,0,.25-.62V83.49a.88.88,0,0,0-.28-.65L73,81.13a.85.85,0,0,0-.6-.24H70.64a.89.89,0,0,1-.63-.27L68.38,79a.9.9,0,0,0-.64-.26H66.63a.88.88,0,0,1-.88-.89v-.6a.88.88,0,0,0-.12-.44L64,73.86a.88.88,0,0,0-.77-.45H61a.91.91,0,0,1-.78-.46l-1-1.87a.9.9,0,0,0-.78-.47H55.88a.86.86,0,0,1-.28,0l-2.94-.95a.9.9,0,0,0-.85.17l-2.66,2.3a.88.88,0,0,1-.92.14l-1.72-.71A.91.91,0,0,1,46,71l-1.24-3.36a.86.86,0,0,0-.5-.52L43,66.62a.88.88,0,0,1-.51-1.12l.65-1.84a.87.87,0,0,0-.2-.92l-.09-.08a.87.87,0,0,0-1.27,0L40.07,64.3a.92.92,0,0,1-.66.29h-.48a.89.89,0,0,1-.84-.61L37.3,61.6a.94.94,0,0,1,0-.5L38,58.25a.88.88,0,0,1,.85-.66h3.06a.89.89,0,0,0,.45-.12l1.78-1a.9.9,0,0,1,1.08.15l1,1.08a1.3,1.3,0,0,0,2.23-.91V55a.89.89,0,0,1,.35-.7L50.55,53a.91.91,0,0,0,.34-.7v-.93a.89.89,0,0,1,.39-.73l4-2.7a.91.91,0,0,0,.39-.74V46a.88.88,0,0,1,.46-.78l4-2.23a.88.88,0,0,0,.24-1.36l-.87-1a.9.9,0,0,1-.22-.59v-.39a.87.87,0,0,1,.88-.88h1.57a.89.89,0,0,0,.6-.24l2.74-2.58a.87.87,0,0,0,0-1.27l-1.32-1.33a.91.91,0,0,1-.24-.44l-.87-4a.89.89,0,0,0-.87-.69h-.44a.88.88,0,0,0-.89.88v.84l-2.54-2.64A.87.87,0,0,0,57.3,27H55.22a.88.88,0,0,0-.88.89v4a.88.88,0,0,1-.28.64l-1.91,1.83a.91.91,0,0,0-.28.67l.06,1.65a.88.88,0,0,1-.93.91h0a.89.89,0,0,1-.84-.91l.07-2.16a.89.89,0,0,0-.58-.86l-3.51-1.31a.89.89,0,0,1-.58-.74l-.11-1.21a.9.9,0,0,1,.36-.8l1.81-1.32a.85.85,0,0,0,.24-.26l2.25-3.72a1,1,0,0,1,.36-.33l3.24-1.62a.87.87,0,0,0,.48-.66l.38-2.7a.88.88,0,0,1,.69-.74l.37-.08a.89.89,0,0,1,.88.31L58,20.36a.87.87,0,0,1,.12.89l-.8,1.91a.86.86,0,0,1-.6.51l-.26.07A.88.88,0,0,0,55.87,25l.09.2a.89.89,0,0,0,.68.51l1.61.22a.93.93,0,0,0,.54-.1l2-1.08a1,1,0,0,0,.43-.55l.7-2.52a.94.94,0,0,0,0-.47l-1-3.85a.83.83,0,0,0-.37-.51l-3.18-2.1a1,1,0,0,0-.66-.13l-4.36.88a.89.89,0,0,0-.71.8l-.11,1.51a.89.89,0,0,0,.89.94h.77l-1,1.69a.92.92,0,0,1-.62.43c-1.51.25-7.11,1.19-13.33,2.26a.86.86,0,0,0-.54.31,51.1,51.1,0,0,0-11.78,30.8.91.91,0,0,0,.16.55l7.59,10.7a.86.86,0,0,0,.6.36l3.41.46a.92.92,0,0,1,.36.13l4.56,2.91a.89.89,0,0,1,.33.39l.82,1.86a1,1,0,0,0,.5.47l3.38,1.27a.88.88,0,0,1,.58.82V76a.89.89,0,0,1-.42.76l-1.53.94a.88.88,0,0,0-.42.75v2.95a.88.88,0,0,0,.44.76l1.07.62a.86.86,0,0,1,.33.35l1.75,3.23a.84.84,0,0,0,.18.23l4.24,3.91a.9.9,0,0,1,.28.65v10.4a.88.88,0,0,0,.5.8A47.7,47.7,0,0,0,60.37,104.73Z"/><path class="cls-6" d="M126.07,68.65a.77.77,0,0,0,1.15-.48,51.41,51.41,0,0,0-17.45-51.75.79.79,0,0,0-1.12.13l-7.59,10a.78.78,0,0,0-.11.74l.59,1.58a.78.78,0,0,0,1.1.41l.47-.26a.78.78,0,0,1,.94.16L105.67,31a.79.79,0,0,0,.58.25h.82a.77.77,0,0,0,.77-.78V29.12a.8.8,0,0,1,.18-.49l1-1.2a.79.79,0,0,0,0-1l-.54-.58a.79.79,0,0,1-.1-.92L110.67,21a.78.78,0,0,1,1.15-.21l.15.12a.77.77,0,0,1-.11,1.29l-.33.19a.76.76,0,0,0-.41.68v2.53a.78.78,0,0,0,1,.73l1.22-.43a.78.78,0,0,1,.84.23l0,0a.77.77,0,0,1-.58,1.28h0a.78.78,0,0,0-.78.78v1.14a.77.77,0,0,1-.77.77h-1a.78.78,0,0,0-.78.78v1.46a.78.78,0,0,1-.78.78h-5.74a.78.78,0,0,0-.39.1l-7.29,4.2a.75.75,0,0,0-.38.67v.65a.73.73,0,0,0,.08.36l1.38,2.68A.78.78,0,0,1,96.56,43h-2a.77.77,0,0,0-.78.77v1.12a.72.72,0,0,1-.06.29L93,46.68A.94.94,0,0,0,93,47v1.64a.77.77,0,0,0,.77.78h2.85a.74.74,0,0,0,.45-.15l1.18-.84a.77.77,0,0,0,.21-.23l2.16-3.62a.73.73,0,0,1,.36-.31l2.54-1.07a.77.77,0,0,1,.93.27l3,4.19a.78.78,0,0,0,1.18.1l.33-.34a.79.79,0,0,0,.08-1l-2.94-4h1a.77.77,0,0,1,.63.32l4.7,6.6a.79.79,0,0,0,1.07.19l.81-.55a.79.79,0,0,0,.22-1.06l-.14-.22a.77.77,0,0,1,.66-1.19h.07a.78.78,0,0,1,.78.77v2.11a.78.78,0,0,0,.77.78h3.19a.77.77,0,0,1,.77.78V52.4a.76.76,0,0,1-.77.77h-7.19a.78.78,0,0,0-.77.78v.34a.79.79,0,0,1-.78.78c-.42,0-.94,0-1.28,0a.8.8,0,0,1-.66-.3l-.72-1a.78.78,0,0,0-.24-.2l-2-1.13a.76.76,0,0,1-.4-.68V50.18a.78.78,0,0,0-.78-.78h-5a.87.87,0,0,0-.39.1l-1.9,1.09a.77.77,0,0,1-.39.11H95.59a.82.82,0,0,0-.43.12l-2.58,1.69a.78.78,0,0,0-.35.65V55a.81.81,0,0,1-.17.49L88,60.5a.77.77,0,0,0-.17.49v4.78a8.33,8.33,0,0,1-.92,1.73.77.77,0,0,0,0,.84l4.7,6.91a.78.78,0,0,0,.79.33l6.92-1.35a.79.79,0,0,1,.61.14l2.53,1.88a.74.74,0,0,1,.31.62V80a.73.73,0,0,0,.09.35L105,84.52a.8.8,0,0,1,.06.55l-1.72,6.76a.7.7,0,0,0,0,.29l.81,6.53a.78.78,0,0,0,1.2.56A51.5,51.5,0,0,0,126,72.31a.77.77,0,0,0-.19-.8l-.44-.45a.68.68,0,0,1-.18-.29l-3.79-10.5a.77.77,0,0,1,1.2-.88l.44.33a.79.79,0,0,1,.3.62v2.19a.88.88,0,0,0,.07.32l1.12,2.44a.88.88,0,0,1,.07.33v1.75A.76.76,0,0,0,125,68ZM122.91,46.1l-2.64-1a.79.79,0,0,0-.84.17l-.65.65a.75.75,0,0,1-.55.23h-.93a.76.76,0,0,1-.57-.25l-.24-.26a.76.76,0,0,1-.12-.87l1.59-3.2a.78.78,0,0,1,.7-.42h1.44a1,1,0,0,0,.24,0l1.26-.4a.78.78,0,0,1,1,.74v1.09a.8.8,0,0,0,.24.56l1.33,1.27a.78.78,0,0,1,0,1.1l-.46.47A.76.76,0,0,1,122.91,46.1Z"/><polygon class="cls-6" points="96.84 36.06 99.11 34.75 97.09 32.2 97.09 29.72 95.14 28.16 94.5 28.8 94.5 30.14 96.42 32.55 96.17 33.72 94.33 31.45 92.38 34.89 93.19 35.35 94.57 33.08 95.5 34.36 95.5 36.06 96.84 36.06"/><path class="cls-6" d="M82.59,17h.3a1,1,0,0,0,.68-.26h0a1,1,0,0,0-.08-1.5l-.09-.07a1,1,0,0,1-.39-.78V13.8h1.65a1,1,0,0,0,.74-.34l.22-.24a1,1,0,0,0,.24-.65V6.38a1,1,0,0,0-.83-1,52.61,52.61,0,0,0-7.79-.59A51.37,51.37,0,0,0,61.48,7.28a1,1,0,0,0-.68.94v.72a1,1,0,0,0,.23.63l.73.88a1,1,0,0,0,1.08.29l2-.69a.87.87,0,0,1,.32-.06h.73a1,1,0,0,1,.84.47l1,1.65a1.07,1.07,0,0,1,.14.52v7.13a1.12,1.12,0,0,0,.05.31l2,6.24a1,1,0,0,0,.63.63l1.54.52a1,1,0,0,0,1.14-.4l1.11-1.7a.93.93,0,0,0,.12-.29l.9-3.45a1,1,0,0,1,1-.74h1.22a1,1,0,0,0,.66-.26l3.68-3.36A1,1,0,0,1,82.59,17Z"/><path class="cls-8" d="M31.06,61.84a51.35,51.35,0,0,1,86.59-37.37A51.35,51.35,0,1,0,42,93.55,51.1,51.1,0,0,1,31.06,61.84Z"/><path class="cls-9" d="M151,140.42c5.48-6.21,3-28,2.33-33.53a1.55,1.55,0,0,0-1.6-1.26H2.58A1.56,1.56,0,0,0,1,106.92c-3.15,27.28,2.31,33.5,2.31,33.5Z"/><path class="cls-10" d="M1,106.92c-2.38,20.64.16,29.22,1.54,32.18H14.33c-11.15-6-7.55-30.55,5.13-30.55h134.1c-.07-.65-.14-1.21-.2-1.66a1.55,1.55,0,0,0-1.6-1.26H2.58A1.56,1.56,0,0,0,1,106.92Z"/><path class="cls-2" d="M151.61,141.77H2.71a1.34,1.34,0,0,1-1.34-1.35h0a1.34,1.34,0,0,1,1.34-1.34h148.9a1.34,1.34,0,0,1,1.34,1.34h0A1.34,1.34,0,0,1,151.61,141.77Z"/><rect class="cls-11" x="17.11" y="110.84" width="19.91" height="9.71" rx="2.24" ry="2.24"/><path class="cls-2" d="M34.77,111.34a1.73,1.73,0,0,1,1.74,1.74v5.23a1.73,1.73,0,0,1-1.74,1.74H19.35a1.73,1.73,0,0,1-1.74-1.74v-5.23a1.73,1.73,0,0,1,1.74-1.74H34.77m0-1H19.35a2.74,2.74,0,0,0-2.74,2.74v5.23a2.74,2.74,0,0,0,2.74,2.74H34.77a2.74,2.74,0,0,0,2.74-2.74v-5.23a2.74,2.74,0,0,0-2.74-2.74Z"/><path class="cls-12" d="M25.24,113.58a2.75,2.75,0,0,1,0,4.23,3.71,3.71,0,0,1-4.79,0,2.75,2.75,0,0,1,0-4.23A3.71,3.71,0,0,1,25.24,113.58Z"/><polygon class="cls-13" points="24.89 117.08 24.41 117.51 20.8 114.31 21.28 113.89 24.89 117.08"/><rect class="cls-6" x="27.36" y="113.15" width="6.57" height="5.09" rx="0.48" ry="0.48"/><rect class="cls-14" x="27.82" y="113.44" width="3.73" height="4.51" rx="0.52" ry="0.52"/><rect class="cls-15" x="27.82" y="113.61" width="3.28" height="4.15" rx="0.47" ry="0.47"/><rect class="cls-6" x="30.36" y="114.06" width="0.17" height="3.27"/><rect class="cls-11" x="117.5" y="110.84" width="19.91" height="9.71" rx="2.24" ry="2.24"/><path class="cls-2" d="M135.17,111.34a1.74,1.74,0,0,1,1.74,1.74v5.23a1.74,1.74,0,0,1-1.74,1.74H119.74a1.74,1.74,0,0,1-1.74-1.74v-5.23a1.74,1.74,0,0,1,1.74-1.74h15.43m0-1H119.74a2.74,2.74,0,0,0-2.74,2.74v5.23a2.74,2.74,0,0,0,2.74,2.74h15.43a2.74,2.74,0,0,0,2.74-2.74v-5.23a2.74,2.74,0,0,0-2.74-2.74Z"/><path class="cls-12" d="M129.28,113.58a2.74,2.74,0,0,0,0,4.23,3.69,3.69,0,0,0,4.78,0,2.74,2.74,0,0,0,0-4.23A3.69,3.69,0,0,0,129.28,113.58Z"/><polygon class="cls-13" points="129.62 117.08 130.1 117.51 133.72 114.31 133.24 113.89 129.62 117.08"/><rect class="cls-6" x="120.59" y="113.15" width="6.57" height="5.09" rx="0.48" ry="0.48" transform="translate(247.75 231.4) rotate(180)"/><rect class="cls-14" x="122.97" y="113.44" width="3.73" height="4.51" rx="0.52" ry="0.52" transform="translate(249.67 231.4) rotate(180)"/><rect class="cls-15" x="123.42" y="113.61" width="3.28" height="4.15" rx="0.47" ry="0.47" transform="translate(250.12 231.38) rotate(180)"/><rect class="cls-6" x="123.98" y="114.06" width="0.17" height="3.27" transform="translate(248.14 231.38) rotate(180)"/><path class="cls-2" d="M51.78,127.89a3.89,3.89,0,1,1,0-7.77H60a3.89,3.89,0,0,1,0,7.77Z"/><path class="cls-2" d="M60,120.5a3.51,3.51,0,0,1,0,7H51.78a3.51,3.51,0,1,1,0-7H60m0-.75H51.78a4.26,4.26,0,1,0,0,8.52H60a4.26,4.26,0,0,0,0-8.52Z"/><path class="cls-11" d="M51.78,126.89a3.89,3.89,0,1,1,0-7.77H60a3.89,3.89,0,0,1,0,7.77Z"/><path class="cls-2" d="M60,119.49a3.51,3.51,0,0,1,0,7H51.78a3.51,3.51,0,1,1,0-7H60m0-.75H51.78a4.26,4.26,0,1,0,0,8.52H60a4.26,4.26,0,0,0,0-8.52Z"/><ellipse class="cls-5" cx="50.5" cy="123" rx="0.67" ry="0.6"/><path class="cls-5" d="M62,123a.65.65,0,0,1-.68.6.64.64,0,0,1-.67-.6.63.63,0,0,1,.67-.59A.64.64,0,0,1,62,123Z"/><path class="cls-2" d="M94.47,127.89a3.89,3.89,0,1,1,0-7.77h8.23a3.89,3.89,0,0,1,0,7.77Z"/><path class="cls-2" d="M102.7,120.5a3.51,3.51,0,0,1,0,7H94.47a3.51,3.51,0,0,1,0-7h8.23m0-.75H94.47a4.26,4.26,0,0,0,0,8.52h8.23a4.26,4.26,0,0,0,0-8.52Z"/><path class="cls-11" d="M94.47,126.89a3.89,3.89,0,1,1,0-7.77h8.23a3.89,3.89,0,0,1,0,7.77Z"/><path class="cls-2" d="M102.7,119.49a3.51,3.51,0,0,1,0,7H94.47a3.51,3.51,0,0,1,0-7h8.23m0-.75H94.47a4.26,4.26,0,0,0,0,8.52h8.23a4.26,4.26,0,0,0,0-8.52Z"/><ellipse class="cls-5" cx="93.19" cy="123" rx="0.67" ry="0.6"/><ellipse class="cls-5" cx="103.97" cy="123" rx="0.67" ry="0.6"/><path class="cls-15" d="M94.74,122.34v6.89a2.91,2.91,0,0,1-3.63,2.58c-5.54-1.08-16.61-2.57-27.63-.14a2.92,2.92,0,0,1-3.7-2.57v-6.76a2,2,0,0,0-2.09-1.84H54a2,2,0,0,0-2.09,1.84v10.29c0,4.3,3.94,7.79,8.81,7.79H93.79c4.87,0,8.82-3.49,8.82-7.79V122.34a2,2,0,0,0-2.09-1.84H96.83A2,2,0,0,0,94.74,122.34Z"/><path class="cls-6" d="M96.58,120.52a1.94,1.94,0,0,0-1.84,1.82v6.89a2.91,2.91,0,0,1-3.63,2.58c-5.54-1.08-16.61-2.57-27.63-.14a2.92,2.92,0,0,1-3.7-2.57v-6.76a1.93,1.93,0,0,0-1.84-1.82v10.54a3.49,3.49,0,0,0,3.69,3.26H92.89a3.49,3.49,0,0,0,3.69-3.26Z"/><rect class="cls-15" x="3.18" y="103.08" width="147.96" height="2.56"/></g></g></g></svg>