<svg xmlns="http://www.w3.org/2000/svg" viewBox="0 0 95.16 145.24"><defs><style>.cls-1{fill:#cfcfcf;}.cls-2{fill:#fff;}.cls-3{fill:none;stroke:#979797;stroke-miterlimit:10;stroke-width:1.04px;}.cls-4{fill:#c4c4c4;}.cls-5{fill:#939393;}.cls-6{fill:#e6e6e6;}.cls-7{fill:#b6b6b6;}.cls-8{fill:#eee;}.cls-9{fill:#595959;}.cls-10{fill:#959595;}</style></defs><title>shop</title><g id="Calque_2" data-name="Calque 2"><g id="OBJECTS"><rect class="cls-1" x="11" width="73.41" height="145.24" rx="7.69" ry="7.69"/><rect class="cls-2" x="16.19" y="4.35" width="62.77" height="121" rx="6.49" ry="6.49"/><path class="cls-3" d="M53.45,135.68a5.75,5.75,0,1,1-5.75-5.74A5.74,5.74,0,0,1,53.45,135.68Z"/><path class="cls-4" d="M80.36,6.08H14.79a1.94,1.94,0,0,1,1.93-1.93H78.44a1.93,1.93,0,0,1,1.92,1.93Z"/><path class="cls-4" d="M0,23.94H10.52a0,0,0,0,1,0,0V27a4.21,4.21,0,0,1-4.21,4.21H4.21A4.21,4.21,0,0,1,0,27V23.94A0,0,0,0,1,0,23.94Z"/><path class="cls-5" d="M10.52,23.94H21.86a0,0,0,0,1,0,0V27a4.21,4.21,0,0,1-4.21,4.21H14.73A4.21,4.21,0,0,1,10.52,27V23.94A0,0,0,0,1,10.52,23.94Z"/><path class="cls-4" d="M28.25,31.21H26.07A4.22,4.22,0,0,1,21.86,27V23.94h10.6V27A4.21,4.21,0,0,1,28.25,31.21Z"/><path class="cls-5" d="M32.46,23.94h10a0,0,0,0,1,0,0V27a4.21,4.21,0,0,1-4.21,4.21H36.68A4.21,4.21,0,0,1,32.46,27V23.94A0,0,0,0,1,32.46,23.94Z"/><polygon class="cls-6" points="14.79 6.08 0 23.95 47.58 23.95 47.58 6.08 14.79 6.08"/><polygon class="cls-7" points="21.19 6.08 10.52 23.95 47.58 23.95 47.58 6.08 21.19 6.08"/><polygon class="cls-6" points="28.87 6.08 21.86 23.95 47.58 23.95 47.58 6.08 28.87 6.08"/><polygon class="cls-7" points="36.06 6.08 32.47 23.95 47.58 23.95 47.58 6.08 36.06 6.08"/><path class="cls-4" d="M42.5,24v3.72c0,2,2.25,3.54,5,3.54h.12c2.77,0,5-1.58,5-3.54V24Z"/><path class="cls-4" d="M88.85,31.21h2.09A4.22,4.22,0,0,0,95.16,27V23.94H84.63V27A4.22,4.22,0,0,0,88.85,31.21Z"/><path class="cls-5" d="M77.51,23.94h2.92a4.21,4.21,0,0,1,4.21,4.21v3.05a0,0,0,0,1,0,0H73.29a0,0,0,0,1,0,0V28.16A4.21,4.21,0,0,1,77.51,23.94Z" transform="translate(157.93 55.15) rotate(180)"/><path class="cls-4" d="M66.9,31.21h2.18A4.21,4.21,0,0,0,73.29,27V23.94H62.69V27A4.22,4.22,0,0,0,66.9,31.21Z"/><path class="cls-5" d="M56.87,23.94h1.61a4.21,4.21,0,0,1,4.21,4.21v3.05a0,0,0,0,1,0,0h-10a0,0,0,0,1,0,0V28.16A4.21,4.21,0,0,1,56.87,23.94Z" transform="translate(115.35 55.15) rotate(180)"/><polygon class="cls-6" points="80.36 6.08 47.58 6.08 47.58 23.95 95.15 23.95 80.36 6.08"/><polygon class="cls-7" points="73.97 6.08 47.58 6.08 47.58 23.95 84.63 23.95 73.97 6.08"/><polygon class="cls-6" points="47.58 6.08 47.58 23.95 73.29 23.95 66.28 6.08 47.58 6.08"/><polygon class="cls-7" points="47.58 6.08 47.58 23.95 62.69 23.95 59.1 6.08 47.58 6.08"/><polygon class="cls-6" points="43.95 6.08 42.5 23.95 52.65 23.95 51.2 6.08 43.95 6.08"/><rect class="cls-5" x="21.19" y="4.15" width="7.63" height="1.93"/><rect class="cls-5" x="66.28" y="4.15" width="7.68" height="1.93"/><rect class="cls-5" x="36.06" y="4.15" width="7.9" height="1.93"/><rect class="cls-5" x="51.2" y="4.15" width="7.9" height="1.93"/><rect class="cls-8" x="24.58" y="71.19" width="45.36" height="39.08" rx="4.32" ry="4.32"/><rect class="cls-8" x="24.58" y="43.99" width="45.36" height="18.32" rx="4.32" ry="4.32"/><path class="cls-9" d="M56.13,79.92H32.43a.83.83,0,0,1-.83-.82h0a.83.83,0,0,1,.83-.83h23.7a.83.83,0,0,1,.83.83h0A.83.83,0,0,1,56.13,79.92Z"/><path class="cls-9" d="M48.35,85.16H32.43a.83.83,0,0,1-.83-.82h0a.83.83,0,0,1,.83-.83H48.35a.83.83,0,0,1,.83.83h0A.83.83,0,0,1,48.35,85.16Z"/><polygon class="cls-9" points="33.99 88.72 34.73 90.22 36.38 90.46 35.19 91.62 35.47 93.27 33.99 92.49 32.52 93.27 32.8 91.62 31.6 90.46 33.25 90.22 33.99 88.72"/><polygon class="cls-9" points="40.63 88.72 41.37 90.22 43.02 90.46 41.82 91.62 42.11 93.27 40.63 92.49 39.15 93.27 39.43 91.62 38.24 90.46 39.89 90.22 40.63 88.72"/><polygon class="cls-9" points="47.26 88.72 48 90.22 49.66 90.46 48.46 91.62 48.74 93.27 47.26 92.49 45.79 93.27 46.07 91.62 44.87 90.46 46.53 90.22 47.26 88.72"/><polygon class="cls-7" points="53.9 88.72 54.64 90.22 56.29 90.46 55.09 91.62 55.38 93.27 53.9 92.49 52.42 93.27 52.7 91.62 51.51 90.46 53.16 90.22 53.9 88.72"/><polygon class="cls-7" points="60.53 88.72 61.27 90.22 62.93 90.46 61.73 91.62 62.01 93.27 60.53 92.49 59.06 93.27 59.34 91.62 58.15 90.46 59.8 90.22 60.53 88.72"/><rect class="cls-7" x="31.6" y="96.05" width="31.32" height="8.04" rx="1.81" ry="1.81"/><path class="cls-10" d="M62.11,49.56H30.6a.58.58,0,1,1,0-1.15H62.11a.58.58,0,1,1,0,1.15Z"/><path class="cls-10" d="M50.1,57.74H30.6a.57.57,0,0,1-.58-.57.58.58,0,0,1,.58-.58H50.1a.57.57,0,0,1,.57.58A.56.56,0,0,1,50.1,57.74Z"/><path class="cls-10" d="M44.43,53.55H30.6a.58.58,0,1,1,0-1.15H44.43a.58.58,0,0,1,0,1.15Z"/></g></g></svg>